<svg xmlns="http://www.w3.org/2000/svg" viewBox="0 0 40 40"><defs><style>.cls-1{fill:#3a7bb5;}</style></defs><title>email</title><g id="Слой_2" data-name="Слой 2"><g id="Слой_1-2" data-name="Слой 1"><path class="cls-1" d="M28.07,12.86H11.93L20,19.77Z"/><path class="cls-1" d="M20,21.43a.69.69,0,0,1-.46-.17L10.71,13.7V27.14H29.29V13.7l-8.83,7.56A.69.69,0,0,1,20,21.43Z"/><path class="cls-1" d="M20,0A20,20,0,1,0,40,20,20,20,0,0,0,20,0ZM30.71,27.86a.71.71,0,0,1-.71.71H10a.71.71,0,0,1-.71-.71V12.14a.71.71,0,0,1,.71-.71H30a.71.71,0,0,1,.71.71Z"/></g></g></svg>