<svg xmlns="http://www.w3.org/2000/svg" viewBox="0 0 50 50"><defs><style>.cls-1{fill:#fff;}.cls-2{fill:#3a7bb5;}</style></defs><title>fb_icon</title><g id="Слой_2" data-name="Слой 2"><g id="Слой_1-2" data-name="Слой 1"><path class="cls-1" d="M25,50h0A25,25,0,0,0,50,25h0A25,25,0,0,0,25,0h0A25,25,0,0,0,0,25H0A25,25,0,0,0,25,50Z"/><path id="facebook" class="cls-2" d="M27.35,40.87V27H32l.7-5.4H27.35V18.16c0-1.56.44-2.63,2.68-2.63h2.86V10.7a40.24,40.24,0,0,0-4.17-.21c-4.12,0-6.94,2.52-6.94,7.14v4H17.11V27h4.67V40.87Z"/></g></g></svg>