<svg xmlns="http://www.w3.org/2000/svg" viewBox="0 0 50 50"><defs><style>.cls-1{fill:#fff;}.cls-2{fill:#3a7bb5;}</style></defs><title>inst_icon</title><g id="Слой_2" data-name="Слой 2"><g id="Слой_1-2" data-name="Слой 1"><path class="cls-1" d="M25,50h0A25,25,0,0,0,50,25h0A25,25,0,0,0,25,0h0A25,25,0,0,0,0,25H0A25,25,0,0,0,25,50Z"/><g id="instagram"><path class="cls-2" d="M25,14.49c3.42,0,3.83,0,5.18.07a7,7,0,0,1,2.38.45A4.27,4.27,0,0,1,35,17.44a7,7,0,0,1,.45,2.38c.06,1.35.07,1.76.07,5.18s0,3.83-.07,5.18A7,7,0,0,1,35,32.56,4.27,4.27,0,0,1,32.56,35a7,7,0,0,1-2.38.45c-1.35.06-1.76.07-5.18.07s-3.83,0-5.18-.07A7,7,0,0,1,17.44,35,4.27,4.27,0,0,1,15,32.56a7,7,0,0,1-.45-2.38c-.06-1.35-.07-1.76-.07-5.18s0-3.83.07-5.18A7,7,0,0,1,15,17.44,4.27,4.27,0,0,1,17.44,15a7,7,0,0,1,2.38-.45c1.35-.06,1.76-.07,5.18-.07m0-2.31c-3.48,0-3.92,0-5.29.08a9.59,9.59,0,0,0-3.11.59,6.57,6.57,0,0,0-3.75,3.75,9.59,9.59,0,0,0-.59,3.11c-.07,1.37-.08,1.81-.08,5.29s0,3.92.08,5.29a9.59,9.59,0,0,0,.59,3.11,6.57,6.57,0,0,0,3.75,3.75,9.59,9.59,0,0,0,3.11.59c1.37.07,1.81.08,5.29.08s3.92,0,5.29-.08a9.59,9.59,0,0,0,3.11-.59,6.57,6.57,0,0,0,3.75-3.75,9.59,9.59,0,0,0,.59-3.11c.07-1.37.08-1.81.08-5.29s0-3.92-.08-5.29a9.59,9.59,0,0,0-.59-3.11,6.57,6.57,0,0,0-3.75-3.75,9.59,9.59,0,0,0-3.11-.59c-1.37-.07-1.81-.08-5.29-.08Z"/><path class="cls-2" d="M25,18.42A6.58,6.58,0,1,0,31.58,25,6.57,6.57,0,0,0,25,18.42Zm0,10.85A4.27,4.27,0,1,1,29.27,25,4.27,4.27,0,0,1,25,29.27Z"/><circle class="cls-2" cx="31.84" cy="18.16" r="1.54"/></g></g></g></svg>