<svg xmlns="http://www.w3.org/2000/svg" viewBox="0 0 40 40"><defs><style>.cls-1{fill:#3a7bb5;}</style></defs><title>phone</title><g id="Слой_2" data-name="Слой 2"><g id="Слой_1-2" data-name="Слой 1"><path class="cls-1" d="M34.14,5.86A20,20,0,1,0,40,20,20,20,0,0,0,34.14,5.86Zm-3.85,22h0l-1,1a5.31,5.31,0,0,1-5,1.44A17.93,17.93,0,0,1,19.09,28,23.71,23.71,0,0,1,15,24.72,23.82,23.82,0,0,1,12,21a18.51,18.51,0,0,1-2.28-4.61A5.35,5.35,0,0,1,11.05,11L12.24,9.8a.84.84,0,0,1,1.2,0h0l3.75,3.74a.85.85,0,0,1,0,1.2h0L15,16.94a1.81,1.81,0,0,0-.19,2.34,26.61,26.61,0,0,0,2.63,3.07,25.36,25.36,0,0,0,3.47,2.91,1.8,1.8,0,0,0,2.31-.2l2.12-2.16a.85.85,0,0,1,1.2,0h0l3.76,3.76A.85.85,0,0,1,30.29,27.86Z"/></g></g></svg>