<svg xmlns="http://www.w3.org/2000/svg" viewBox="0 0 155.89 155.89"><defs><style>.cls-1{fill:#6cc7dd;}</style></defs><title>qr</title><g id="Слой_2" data-name="Слой 2"><g id="Слой_1-2" data-name="Слой 1"><path id="p0" class="cls-1" d="M0,.37A.36.36,0,0,1,.37,0H17.52a.36.36,0,0,1,.37.37V17.52a.36.36,0,0,1-.37.37H.37A.36.36,0,0,1,0,17.52V.37M2.92,2.56a.35.35,0,0,0-.36.36V15a.35.35,0,0,0,.36.36H15a.35.35,0,0,0,.36-.36v-12A.35.35,0,0,0,15,2.56Z"/><path id="p1" class="cls-1" d="M0,20.81a.36.36,0,0,1,.37-.37h12a.36.36,0,0,1,.37.37v1.82a.36.36,0,0,1-.37.37H8a.36.36,0,0,0-.36.37v1.82a.36.36,0,0,1-.37.37H5.48a.36.36,0,0,1-.37-.37V23.37A.36.36,0,0,0,4.75,23H2.92a.36.36,0,0,0-.36.37v4.38a.35.35,0,0,0,.36.36H4.75a.36.36,0,0,1,.36.37V30.3a.36.36,0,0,1-.36.37H2.92a.35.35,0,0,0-.36.36v1.83a.36.36,0,0,1-.37.36H.37A.36.36,0,0,1,0,32.86Z"/><path id="p2" class="cls-1" d="M7.67,31A.35.35,0,0,1,8,30.67H9.86a.35.35,0,0,1,.36.36v4.38a.36.36,0,0,1-.36.37H5.48a.36.36,0,0,0-.37.36V38a.35.35,0,0,1-.36.36H2.92a.36.36,0,0,0-.36.37v4.38a.36.36,0,0,1-.37.36H.37A.36.36,0,0,1,0,43.08V36.14a.36.36,0,0,1,.37-.36H2.19a.36.36,0,0,0,.37-.37V33.59a.36.36,0,0,1,.36-.37H7.3a.36.36,0,0,0,.37-.36Z"/><path id="p3" class="cls-1" d="M2.56,48.92a.35.35,0,0,1,.36-.36H7.3a.36.36,0,0,1,.37.36v1.83a.36.36,0,0,1-.37.36H5.48a.36.36,0,0,0-.37.37v6.93a.36.36,0,0,0,.37.37H7.3a.36.36,0,0,1,.37.36v4.38a.36.36,0,0,1-.37.37H5.48a.36.36,0,0,0-.37.36v1.83a.35.35,0,0,1-.36.36H2.92a.35.35,0,0,1-.36-.36V61.7a.36.36,0,0,0-.37-.37H.37A.36.36,0,0,1,0,61V59.14a.36.36,0,0,1,.37-.36H2.19a.36.36,0,0,0,.37-.37Z"/><path id="p4" class="cls-1" d="M10.22,64.25a.36.36,0,0,1,.37-.36h1.82a.36.36,0,0,1,.37.36v4.38a.36.36,0,0,0,.36.37H15a.36.36,0,0,1,.36.37v1.82a.36.36,0,0,0,.37.37h1.82a.36.36,0,0,0,.37-.37V69.37a.36.36,0,0,0-.37-.37H15.7a.36.36,0,0,1-.37-.37V66.81a.36.36,0,0,1,.37-.37h4.38a.35.35,0,0,0,.36-.36V64.25a.36.36,0,0,1,.37-.36h1.82a.36.36,0,0,1,.37.36v4.38a.36.36,0,0,1-.37.37H20.81a.36.36,0,0,0-.37.37v1.82a.36.36,0,0,0,.37.37h1.82a.36.36,0,0,0,.37-.37V69.37a.36.36,0,0,1,.37-.37h1.82a.36.36,0,0,1,.37.37v1.82a.36.36,0,0,0,.36.37h1.83a.35.35,0,0,1,.36.36V76.3a.36.36,0,0,1-.36.37H25.92a.36.36,0,0,1-.36-.37V74.48a.36.36,0,0,0-.37-.37H23.37a.36.36,0,0,0-.37.37V76.3a.36.36,0,0,0,.37.37h1.82a.36.36,0,0,1,.37.36v4.38a.36.36,0,0,0,.36.37h1.83a.35.35,0,0,1,.36.36V84a.35.35,0,0,1-.36.36H23.37a.36.36,0,0,0-.37.37v6.93a.36.36,0,0,0,.37.37h1.82a.36.36,0,0,0,.37-.37V87.25a.35.35,0,0,1,.36-.36H30.3a.36.36,0,0,1,.37.36v4.38A.36.36,0,0,0,31,92h1.83a.36.36,0,0,1,.36.37v1.82a.36.36,0,0,1-.36.37H31a.35.35,0,0,0-.36.36v6.94a.36.36,0,0,1-.37.36H28.48a.36.36,0,0,0-.37.37V107a.36.36,0,0,0,.37.36H30.3a.36.36,0,0,0,.37-.36v-4.38a.36.36,0,0,1,.36-.37h1.83a.35.35,0,0,0,.36-.36V100a.36.36,0,0,1,.37-.36h1.82a.36.36,0,0,0,.37-.37V97.48a.36.36,0,0,1,.36-.37H38a.36.36,0,0,1,.36.37V99.3a.36.36,0,0,0,.37.37h1.82a.36.36,0,0,0,.37-.37V97.48a.36.36,0,0,1,.36-.37h4.38a.36.36,0,0,1,.37.37V99.3a.36.36,0,0,1-.37.37H43.81a.36.36,0,0,0-.37.36v1.83a.36.36,0,0,0,.37.36h1.82a.36.36,0,0,1,.37.37v1.82a.36.36,0,0,1-.37.37H41.25a.36.36,0,0,1-.36-.37v-1.82a.36.36,0,0,0-.37-.37H38.7a.36.36,0,0,0-.37.37v1.82a.36.36,0,0,0,.37.37h1.82a.36.36,0,0,1,.37.36V107a.36.36,0,0,1-.37.36H36.14a.35.35,0,0,1-.36-.36v-1.83a.36.36,0,0,0-.37-.36H33.59a.36.36,0,0,0-.37.36V107a.36.36,0,0,0,.37.36h1.82a.36.36,0,0,1,.37.37v1.82a.36.36,0,0,0,.36.37h6.94a.35.35,0,0,1,.36.36v1.83a.35.35,0,0,1-.36.36H41.25a.36.36,0,0,0-.36.37v1.82a.36.36,0,0,0,.36.37h4.38a.36.36,0,0,0,.37-.37v-1.82a.36.36,0,0,1,.37-.37h1.82a.36.36,0,0,1,.37.37v1.82a.36.36,0,0,0,.36.37H53.3a.36.36,0,0,1,.37.37v1.82a.36.36,0,0,1-.37.37H43.81a.36.36,0,0,0-.37.36v1.83a.36.36,0,0,0,.37.36h4.38a.36.36,0,0,1,.37.37v1.82a.36.36,0,0,0,.36.37h1.83a.35.35,0,0,1,.36.36v1.83a.36.36,0,0,0,.37.36H53.3a.36.36,0,0,1,.37.37v1.82a.36.36,0,0,1-.37.37H51.48a.36.36,0,0,0-.37.36v4.38a.36.36,0,0,1-.36.37H48.92a.36.36,0,0,1-.36-.37V130.7a.36.36,0,0,0-.37-.37H46.37a.36.36,0,0,0-.37.37v1.82a.36.36,0,0,0,.37.37h1.82a.36.36,0,0,1,.37.36V145.3a.36.36,0,0,0,.36.37H53.3a.36.36,0,0,0,.37-.37v-1.82a.36.36,0,0,1,.36-.37h4.38a.36.36,0,0,1,.37.37v1.82a.36.36,0,0,0,.36.37H61a.35.35,0,0,1,.36.36v1.83a.36.36,0,0,0,.37.36h1.82a.36.36,0,0,1,.37.37v1.82a.36.36,0,0,1-.37.37H61.7a.36.36,0,0,0-.37.36V153a.35.35,0,0,1-.36.36H59.14a.35.35,0,0,1-.36-.36v-4.38a.36.36,0,0,0-.37-.37H56.59a.36.36,0,0,0-.37.37V153a.36.36,0,0,0,.37.36h1.82a.36.36,0,0,1,.37.37v1.82a.36.36,0,0,1-.37.37h-12a.36.36,0,0,1-.37-.37V153.7a.36.36,0,0,0-.37-.37H43.81a.36.36,0,0,1-.37-.36V146a.36.36,0,0,1,.37-.36h1.82a.36.36,0,0,0,.37-.37v-1.82a.36.36,0,0,0-.37-.37H43.81a.36.36,0,0,1-.37-.36v-1.83a.36.36,0,0,1,.37-.36h1.82a.36.36,0,0,0,.37-.37v-4.38a.36.36,0,0,0-.37-.37H43.81a.36.36,0,0,1-.37-.36v-1.83a.35.35,0,0,0-.36-.36H41.25a.36.36,0,0,1-.36-.37V130.7a.36.36,0,0,0-.37-.37H38.7a.36.36,0,0,1-.37-.36v-1.83a.36.36,0,0,1,.37-.36h1.82a.36.36,0,0,0,.37-.37v-1.82a.36.36,0,0,1,.36-.37h1.83a.35.35,0,0,0,.36-.36V123a.35.35,0,0,0-.36-.36H41.25a.35.35,0,0,0-.36.36v1.83a.36.36,0,0,1-.37.36H38.7a.36.36,0,0,1-.37-.36v-4.38a.36.36,0,0,1,.37-.37h1.82a.36.36,0,0,0,.37-.36v-1.83a.36.36,0,0,0-.37-.36H38.7a.36.36,0,0,1-.37-.37v-1.82A.36.36,0,0,0,38,115H36.14a.36.36,0,0,1-.36-.37v-1.82a.36.36,0,0,0-.37-.37H33.59a.36.36,0,0,0-.37.37v1.82a.36.36,0,0,1-.36.37H31a.36.36,0,0,0-.36.37v1.82a.36.36,0,0,0,.36.37h1.83a.35.35,0,0,1,.36.36v4.38a.36.36,0,0,0,.37.37h1.82a.36.36,0,0,1,.37.36v1.83a.35.35,0,0,0,.36.36H38a.36.36,0,0,1,.36.37v1.82a.36.36,0,0,1-.36.37H36.14a.35.35,0,0,0-.36.36v4.38a.36.36,0,0,1-.37.37H33.59a.36.36,0,0,0-.37.36v4.38a.36.36,0,0,1-.36.37H31a.36.36,0,0,1-.36-.37v-1.82a.36.36,0,0,0-.37-.37H28.48a.36.36,0,0,1-.37-.36v-1.83a.35.35,0,0,0-.36-.36H23.37a.36.36,0,0,0-.37.36v6.94a.36.36,0,0,1-.37.37H20.81a.36.36,0,0,1-.37-.37v-6.94a.35.35,0,0,0-.36-.36H18.25a.36.36,0,0,1-.36-.37V130.7a.36.36,0,0,0-.37-.37H13.14a.36.36,0,0,0-.36.37v1.82a.36.36,0,0,1-.37.37H10.59a.36.36,0,0,1-.37-.37V130.7a.36.36,0,0,0-.36-.37H8a.36.36,0,0,0-.36.37v1.82a.36.36,0,0,0,.36.37H9.86a.35.35,0,0,1,.36.36v1.83a.35.35,0,0,1-.36.36H.37a.36.36,0,0,1-.37-.36V130.7a.36.36,0,0,1,.37-.37H4.75a.35.35,0,0,0,.36-.36v-1.83a.35.35,0,0,0-.36-.36H.37a.36.36,0,0,1-.37-.37v-1.82a.36.36,0,0,1,.37-.37H4.75a.35.35,0,0,0,.36-.36V123a.35.35,0,0,0-.36-.36H.37A.36.36,0,0,1,0,122.3v-4.38a.36.36,0,0,1,.37-.36H2.19a.36.36,0,0,1,.37.36v1.83a.35.35,0,0,0,.36.36H4.75a.35.35,0,0,0,.36-.36v-1.83a.36.36,0,0,1,.37-.36H7.3a.36.36,0,0,1,.37.36v1.83a.35.35,0,0,0,.36.36H9.86a.36.36,0,0,1,.36.37v1.82a.36.36,0,0,1-.36.37H8a.35.35,0,0,0-.36.36v1.83a.35.35,0,0,0,.36.36H9.86a.35.35,0,0,0,.36-.36V123a.36.36,0,0,1,.37-.36h1.82a.36.36,0,0,1,.37.36v1.83a.35.35,0,0,0,.36.36H15a.36.36,0,0,1,.36.37v1.82a.36.36,0,0,0,.37.37h1.82a.36.36,0,0,0,.37-.37v-1.82a.36.36,0,0,1,.36-.37h1.83a.36.36,0,0,1,.36.37v1.82a.36.36,0,0,0,.37.37h1.82a.36.36,0,0,1,.37.36V130a.36.36,0,0,0,.37.36h1.82a.36.36,0,0,0,.37-.36v-1.83a.35.35,0,0,1,.36-.36H30.3a.36.36,0,0,0,.37-.37v-1.82a.36.36,0,0,0-.37-.37H28.48a.36.36,0,0,1-.37-.36v-6.94a.35.35,0,0,0-.36-.36H23.37a.36.36,0,0,0-.37.36v1.83a.36.36,0,0,1-.37.36H20.81a.36.36,0,0,1-.37-.36v-4.38a.36.36,0,0,0-.36-.37H15.7a.36.36,0,0,1-.37-.37v-1.82a.36.36,0,0,1,.37-.37h9.49a.36.36,0,0,0,.37-.36v-9.49a.36.36,0,0,0-.37-.37H23.37a.36.36,0,0,1-.37-.36V100a.36.36,0,0,1,.37-.36h1.82a.36.36,0,0,0,.37-.37V97.48a.36.36,0,0,0-.37-.37H23.37a.36.36,0,0,1-.37-.36V94.92a.36.36,0,0,0-.37-.36H20.81a.36.36,0,0,1-.37-.37V89.81a.36.36,0,0,0-.36-.37H10.59a.36.36,0,0,0-.37.37v1.82a.36.36,0,0,1-.36.37H8a.36.36,0,0,0-.36.37v1.82a.36.36,0,0,1-.37.37H5.48a.36.36,0,0,1-.37-.37V89.81a.36.36,0,0,0-.36-.37H.37A.36.36,0,0,1,0,89.08V82.14a.36.36,0,0,1,.37-.36H2.19a.36.36,0,0,1,.37.36v4.38a.36.36,0,0,0,.36.37H4.75a.36.36,0,0,0,.36-.37V82.14a.36.36,0,0,1,.37-.36H7.3a.36.36,0,0,0,.37-.37V79.59A.36.36,0,0,1,8,79.22H9.86a.35.35,0,0,0,.36-.36V74.48a.36.36,0,0,0-.36-.37H5.48a.36.36,0,0,0-.37.37V76.3a.36.36,0,0,0,.37.37H7.3a.36.36,0,0,1,.37.36v1.83a.36.36,0,0,1-.37.36H.37A.36.36,0,0,1,0,78.86V77a.36.36,0,0,1,.37-.36H2.19a.36.36,0,0,0,.37-.37V74.48a.36.36,0,0,0-.37-.37H.37A.36.36,0,0,1,0,73.75V71.92a.36.36,0,0,1,.37-.36H2.19a.36.36,0,0,0,.37-.37V69.37A.36.36,0,0,1,2.92,69H4.75a.36.36,0,0,0,.36-.37V66.81a.36.36,0,0,1,.37-.37H9.86a.35.35,0,0,0,.36-.36V64.25m2.92,9.86a.36.36,0,0,0-.36.37v6.93a.36.36,0,0,0,.36.37h6.94a.36.36,0,0,0,.36-.37V74.48a.36.36,0,0,0-.36-.37H13.14M10.59,84.33a.36.36,0,0,0-.37.37v1.82a.36.36,0,0,0,.37.37h1.82a.36.36,0,0,0,.37-.37V84.7a.36.36,0,0,0-.37-.37H10.59m5.11,0a.36.36,0,0,0-.37.37v1.82a.36.36,0,0,0,.37.37h4.38a.36.36,0,0,0,.36-.37V84.7a.36.36,0,0,0-.36-.37H15.7m30.67,63.89a.36.36,0,0,0-.37.37v1.82a.36.36,0,0,0,.37.37h4.38a.36.36,0,0,0,.36-.37v-1.82a.36.36,0,0,0-.36-.37Z"/><path id="p5" class="cls-1" d="M0,97.48a.36.36,0,0,1,.37-.37H7.3a.36.36,0,0,1,.37.37V99.3a.36.36,0,0,1-.37.37H.37A.36.36,0,0,1,0,99.3Z"/><path id="p6" class="cls-1" d="M0,102.59a.36.36,0,0,1,.37-.37H4.75a.36.36,0,0,1,.36.37V107a.36.36,0,0,0,.37.36H7.3a.36.36,0,0,1,.37.37v1.82a.36.36,0,0,1-.37.37H5.48a.36.36,0,0,0-.37.36v4.38a.36.36,0,0,1-.36.37H2.92a.36.36,0,0,1-.36-.37v-4.38a.36.36,0,0,0-.37-.36H.37a.36.36,0,0,1-.37-.37V107.7a.36.36,0,0,1,.37-.37H2.19a.36.36,0,0,0,.37-.36v-1.83a.36.36,0,0,0-.37-.36H.37a.36.36,0,0,1-.37-.37Z"/><path id="p7" class="cls-1" d="M0,138.37A.36.36,0,0,1,.37,138H17.52a.36.36,0,0,1,.37.37v17.15a.36.36,0,0,1-.37.37H.37a.36.36,0,0,1-.37-.37V138.37m2.92,2.19a.35.35,0,0,0-.36.36V153a.35.35,0,0,0,.36.36H15a.35.35,0,0,0,.36-.36V140.92a.35.35,0,0,0-.36-.36Z"/><path id="p8" class="cls-1" d="M2.56,43.81a.36.36,0,0,1,.36-.37H7.3a.36.36,0,0,1,.37.37v1.82A.36.36,0,0,1,7.3,46H2.92a.36.36,0,0,1-.36-.37Z"/><path id="p9" class="cls-1" d="M5.11,5.48a.36.36,0,0,1,.37-.37h6.93a.36.36,0,0,1,.37.37v6.93a.36.36,0,0,1-.37.37H5.48a.36.36,0,0,1-.37-.37Z"/><path id="p10" class="cls-1" d="M28.11,28.48a.36.36,0,0,1,.37-.37H30.3a.36.36,0,0,1,.37.37v4.38a.35.35,0,0,0,.36.36h1.83a.36.36,0,0,1,.36.37v1.82a.36.36,0,0,1-.36.37H31a.35.35,0,0,0-.36.36V38a.35.35,0,0,0,.36.36h1.83a.36.36,0,0,1,.36.37v1.82a.36.36,0,0,0,.37.37h1.82a.36.36,0,0,0,.37-.37V38.7a.36.36,0,0,0-.37-.37H33.59a.36.36,0,0,1-.37-.36V36.14a.36.36,0,0,1,.37-.36H38a.36.36,0,0,0,.36-.37V33.59a.36.36,0,0,0-.36-.37H36.14a.35.35,0,0,1-.36-.36V31a.35.35,0,0,1,.36-.36H38a.36.36,0,0,0,.36-.37V28.48a.36.36,0,0,1,.37-.37h6.93a.36.36,0,0,1,.37.37V30.3a.36.36,0,0,1-.37.37H43.81a.36.36,0,0,0-.37.36v1.83a.35.35,0,0,1-.36.36H41.25a.36.36,0,0,0-.36.37V38a.35.35,0,0,0,.36.36h6.94a.36.36,0,0,1,.37.37v1.82a.36.36,0,0,1-.37.37H46.37a.36.36,0,0,0-.37.36v1.83a.36.36,0,0,0,.37.36h1.82a.36.36,0,0,1,.37.37v4.38a.36.36,0,0,1-.37.37H46.37a.36.36,0,0,1-.37-.37V46.37a.36.36,0,0,0-.37-.37H43.81a.36.36,0,0,0-.37.37v1.82a.36.36,0,0,0,.37.37h1.82a.36.36,0,0,1,.37.36v1.83a.36.36,0,0,0,.37.36h1.82a.36.36,0,0,1,.37.37V53.3a.36.36,0,0,0,.36.37h1.83a.36.36,0,0,0,.36-.37V51.48a.36.36,0,0,1,.37-.37h4.38a.36.36,0,0,1,.36.37V53.3a.36.36,0,0,1-.36.37H54a.35.35,0,0,0-.36.36V61a.36.36,0,0,1-.37.36H51.48a.36.36,0,0,1-.37-.36V59.14a.35.35,0,0,0-.36-.36H48.92a.35.35,0,0,0-.36.36v4.38a.36.36,0,0,0,.36.37h6.94a.36.36,0,0,0,.36-.37V61.7a.36.36,0,0,1,.37-.37h1.82a.36.36,0,0,0,.37-.36V59.14a.35.35,0,0,1,.36-.36h4.38a.36.36,0,0,1,.37.36V61a.35.35,0,0,0,.36.36h1.83a.35.35,0,0,0,.36-.36V59.14a.35.35,0,0,0-.36-.36H64.25a.36.36,0,0,1-.36-.37V56.59a.36.36,0,0,1,.36-.37h4.38a.36.36,0,0,0,.37-.36V54a.36.36,0,0,1,.37-.36h4.38a.35.35,0,0,1,.36.36v1.83a.36.36,0,0,0,.37.36h4.38a.36.36,0,0,1,.36.37v1.82a.36.36,0,0,0,.37.37h1.82a.36.36,0,0,1,.37.36V61a.35.35,0,0,0,.36.36H84a.36.36,0,0,1,.36.37v1.82a.36.36,0,0,1-.36.37H82.14a.35.35,0,0,0-.36.36v1.83a.36.36,0,0,1-.37.36H77a.36.36,0,0,0-.36.37v1.82A.36.36,0,0,0,77,69h4.38a.36.36,0,0,1,.37.37v1.82a.36.36,0,0,0,.36.37H84a.35.35,0,0,1,.36.36V76.3a.36.36,0,0,0,.37.37h1.82a.36.36,0,0,1,.37.36v4.38a.36.36,0,0,1-.37.37H84.7a.36.36,0,0,0-.37.36V84a.35.35,0,0,1-.36.36H79.59a.36.36,0,0,0-.37.37v1.82a.36.36,0,0,1-.36.37H77a.36.36,0,0,1-.36-.37V84.7a.36.36,0,0,0-.37-.37H74.48a.36.36,0,0,0-.37.37v1.82a.36.36,0,0,1-.36.37H69.37a.36.36,0,0,1-.37-.37V84.7a.36.36,0,0,0-.37-.37H66.81a.36.36,0,0,1-.37-.36V82.14a.36.36,0,0,1,.37-.36h1.82a.36.36,0,0,0,.37-.37V77a.36.36,0,0,0-.37-.36H64.25a.35.35,0,0,0-.36.36v1.83a.36.36,0,0,1-.37.36H61.7a.36.36,0,0,1-.37-.36V71.92a.36.36,0,0,1,.37-.36h1.82a.36.36,0,0,1,.37.36v1.83a.35.35,0,0,0,.36.36h6.94a.36.36,0,0,0,.37-.36V71.92a.35.35,0,0,1,.36-.36h1.83a.36.36,0,0,0,.36-.37V64.25a.36.36,0,0,1,.37-.36h4.38a.36.36,0,0,0,.36-.37V61.7a.36.36,0,0,0-.36-.37H77a.35.35,0,0,1-.36-.36V59.14a.36.36,0,0,0-.37-.36H74.48a.36.36,0,0,0-.37.36v4.38a.36.36,0,0,1-.36.37H71.92a.36.36,0,0,1-.36-.37V61.7a.36.36,0,0,0-.37-.37H69.37a.36.36,0,0,0-.37.37v1.82a.36.36,0,0,1-.37.37H61.7a.36.36,0,0,0-.37.36v1.83a.36.36,0,0,0,.37.36h1.82a.36.36,0,0,1,.37.37v1.82a.36.36,0,0,1-.37.37H61.7a.36.36,0,0,0-.37.37v1.82a.36.36,0,0,1-.36.37H56.59a.36.36,0,0,1-.37-.37V69.37a.36.36,0,0,1,.37-.37h1.82a.36.36,0,0,0,.37-.37V66.81a.36.36,0,0,0-.37-.37H56.59a.36.36,0,0,0-.37.37v1.82a.36.36,0,0,1-.36.37H54a.36.36,0,0,0-.36.37v1.82a.36.36,0,0,1-.37.37H48.92a.35.35,0,0,0-.36.36v1.83a.35.35,0,0,0,.36.36h6.94a.36.36,0,0,1,.36.37V76.3a.36.36,0,0,1-.36.37H48.92a.35.35,0,0,0-.36.36V84a.36.36,0,0,1-.37.36H46.37A.36.36,0,0,1,46,84V79.59a.36.36,0,0,0-.37-.37H43.81a.36.36,0,0,1-.37-.36V77a.36.36,0,0,1,.37-.36h1.82A.36.36,0,0,0,46,76.3V71.92a.36.36,0,0,0-.37-.36H43.81a.36.36,0,0,1-.37-.37V66.81a.36.36,0,0,0-.36-.37H41.25a.35.35,0,0,1-.36-.36V64.25a.36.36,0,0,0-.37-.36H38.7a.36.36,0,0,0-.37.36v1.83a.35.35,0,0,1-.36.36H36.14a.35.35,0,0,1-.36-.36V64.25a.36.36,0,0,0-.37-.36H33.59a.36.36,0,0,1-.37-.37V61.7a.36.36,0,0,0-.36-.37H28.48a.36.36,0,0,1-.37-.36V59.14a.36.36,0,0,1,.37-.36h4.38a.36.36,0,0,0,.36-.37V54a.36.36,0,0,1,.37-.36H38a.36.36,0,0,0,.36-.37V51.48a.36.36,0,0,1,.37-.37h1.82a.36.36,0,0,1,.37.37v4.38a.35.35,0,0,0,.36.36h1.83a.36.36,0,0,1,.36.37v1.82a.36.36,0,0,1-.36.37H36.14a.35.35,0,0,0-.36.36V61a.35.35,0,0,0,.36.36h6.94a.36.36,0,0,1,.36.37v1.82a.36.36,0,0,0,.37.37h1.82a.36.36,0,0,0,.37-.37V61.7a.36.36,0,0,0-.37-.37H43.81a.36.36,0,0,1-.37-.36V59.14a.36.36,0,0,1,.37-.36h1.82a.36.36,0,0,0,.37-.37V54a.36.36,0,0,0-.37-.36H43.81a.36.36,0,0,1-.37-.37V51.48a.36.36,0,0,0-.36-.37H41.25a.35.35,0,0,1-.36-.36V48.92a.36.36,0,0,0-.37-.36H36.14a.35.35,0,0,0-.36.36v1.83a.36.36,0,0,1-.37.36H33.59a.36.36,0,0,0-.37.37V53.3a.36.36,0,0,1-.36.37H31a.36.36,0,0,1-.36-.37V51.48a.36.36,0,0,0-.37-.37H28.48a.36.36,0,0,0-.37.37V53.3a.36.36,0,0,1-.36.37H23.37A.36.36,0,0,0,23,54v1.83a.36.36,0,0,0,.37.36h4.38a.36.36,0,0,1,.36.37v1.82a.36.36,0,0,1-.36.37H25.92a.35.35,0,0,0-.36.36V61a.35.35,0,0,0,.36.36h1.83a.36.36,0,0,1,.36.37v1.82a.36.36,0,0,1-.36.37H23.37a.36.36,0,0,1-.37-.37V61.7a.36.36,0,0,0-.37-.37H20.81a.36.36,0,0,0-.37.37v1.82a.36.36,0,0,1-.36.37H15.7a.36.36,0,0,1-.37-.37V61.7a.36.36,0,0,1,.37-.37h1.82a.36.36,0,0,0,.37-.36V59.14a.35.35,0,0,1,.36-.36h1.83a.36.36,0,0,0,.36-.37V54a.35.35,0,0,0-.36-.36H13.14a.36.36,0,0,1-.36-.37V51.48a.36.36,0,0,1,.36-.37H25.19a.36.36,0,0,0,.37-.36V48.92a.36.36,0,0,0-.37-.36H23.37a.36.36,0,0,1-.37-.37V46.37a.36.36,0,0,1,.37-.37h1.82a.36.36,0,0,0,.37-.37V43.81a.36.36,0,0,1,.36-.37h1.83a.36.36,0,0,1,.36.37v1.82a.36.36,0,0,0,.37.37H30.3a.36.36,0,0,0,.37-.37V41.25a.36.36,0,0,0-.37-.36H20.81a.36.36,0,0,1-.37-.37V38.7a.36.36,0,0,0-.36-.37H15.7a.36.36,0,0,0-.37.37v1.82a.36.36,0,0,0,.37.37h4.38a.35.35,0,0,1,.36.36v1.83a.35.35,0,0,1-.36.36H15.7a.36.36,0,0,0-.37.37v1.82a.36.36,0,0,0,.37.37h4.38a.36.36,0,0,1,.36.37v1.82a.36.36,0,0,1-.36.37H13.14a.36.36,0,0,1-.36-.37V43.81a.36.36,0,0,0-.37-.37H8a.35.35,0,0,1-.36-.36V41.25a.36.36,0,0,0-.37-.36H5.48a.36.36,0,0,1-.37-.37V38.7a.36.36,0,0,1,.37-.37H9.86a.36.36,0,0,1,.36.37v1.82a.36.36,0,0,0,.37.37h1.82a.36.36,0,0,0,.37-.37V38.7a.36.36,0,0,0-.37-.37H10.59a.36.36,0,0,1-.37-.36V36.14a.36.36,0,0,1,.37-.36h12a.36.36,0,0,1,.37.36V38a.36.36,0,0,0,.37.36h1.82a.36.36,0,0,0,.37-.36V36.14a.35.35,0,0,1,.36-.36h1.83a.36.36,0,0,0,.36-.37V33.59a.36.36,0,0,0-.36-.37H25.92a.35.35,0,0,1-.36-.36V31a.35.35,0,0,1,.36-.36h1.83a.36.36,0,0,0,.36-.37V28.48M41.25,40.89a.35.35,0,0,0-.36.36v1.83a.36.36,0,0,1-.37.36H33.59a.36.36,0,0,0-.37.37v1.82a.36.36,0,0,0,.37.37h6.93a.36.36,0,0,0,.37-.37V43.81a.36.36,0,0,1,.36-.37h1.83a.35.35,0,0,0,.36-.36V41.25a.35.35,0,0,0-.36-.36H41.25m5.12,25.55a.36.36,0,0,0-.37.37v1.82a.36.36,0,0,0,.37.37h4.38a.36.36,0,0,0,.36-.37V66.81a.36.36,0,0,0-.36-.37H46.37m28.11,7.67a.36.36,0,0,0-.37.37v6.93a.36.36,0,0,0,.37.37h6.93a.36.36,0,0,0,.37-.37V74.48a.36.36,0,0,0-.37-.37Z"/><path id="p11" class="cls-1" d="M5.11,143.48a.36.36,0,0,1,.37-.37h6.93a.36.36,0,0,1,.37.37v6.93a.36.36,0,0,1-.37.37H5.48a.36.36,0,0,1-.37-.37Z"/><path id="p12" class="cls-1" d="M7.67,25.92A.35.35,0,0,1,8,25.56h4.38a.36.36,0,0,1,.37.36v1.83a.36.36,0,0,1-.37.36H8a.35.35,0,0,1-.36-.36Z"/><path id="p13" class="cls-1" d="M7.67,54A.35.35,0,0,1,8,53.67h4.38a.36.36,0,0,1,.37.36v1.83a.36.36,0,0,1-.37.36H8a.35.35,0,0,1-.36-.36Z"/><path id="p14" class="cls-1" d="M7.67,105.14a.35.35,0,0,1,.36-.36H9.86a.35.35,0,0,1,.36.36V107a.35.35,0,0,1-.36.36H8a.35.35,0,0,1-.36-.36Z"/><path id="p15" class="cls-1" d="M7.67,110.25a.35.35,0,0,1,.36-.36h4.38a.36.36,0,0,1,.37.36v4.38a.36.36,0,0,1-.37.37H10.59a.36.36,0,0,1-.37-.37v-1.82a.36.36,0,0,0-.36-.37H8a.35.35,0,0,1-.36-.36Z"/><path id="p16" class="cls-1" d="M10.22,48.92a.36.36,0,0,1,.37-.36h1.82a.36.36,0,0,1,.37.36v1.83a.36.36,0,0,1-.37.36H10.59a.36.36,0,0,1-.37-.36Z"/><path id="p17" class="cls-1" d="M12.78,56.59a.36.36,0,0,1,.36-.37h4.38a.36.36,0,0,1,.37.37v1.82a.36.36,0,0,1-.37.37H15.7a.36.36,0,0,0-.37.36V61a.35.35,0,0,1-.36.36H10.59a.36.36,0,0,1-.37-.36V59.14a.36.36,0,0,1,.37-.36h1.82a.36.36,0,0,0,.37-.37Z"/><path id="p18" class="cls-1" d="M10.22,92.37a.36.36,0,0,1,.37-.37h6.93a.36.36,0,0,1,.37.37v1.82a.36.36,0,0,1-.37.37H15.7a.36.36,0,0,0-.37.36v1.83a.35.35,0,0,1-.36.36H13.14a.35.35,0,0,1-.36-.36V94.92a.36.36,0,0,0-.37-.36H10.59a.36.36,0,0,1-.37-.37Z"/><path id="p19" class="cls-1" d="M10.22,97.48a.36.36,0,0,1,.37-.37h1.82a.36.36,0,0,1,.37.37V99.3a.36.36,0,0,1-.37.37H10.59a.36.36,0,0,1-.37-.37Z"/><path id="p20" class="cls-1" d="M10.22,117.92a.36.36,0,0,1,.37-.36h1.82a.36.36,0,0,1,.37.36v1.83a.36.36,0,0,1-.37.36H10.59a.36.36,0,0,1-.37-.36Z"/><path id="p21" class="cls-1" d="M12.78,100a.35.35,0,0,1,.36-.36H15a.35.35,0,0,1,.36.36v1.83a.35.35,0,0,1-.36.36H13.14a.35.35,0,0,1-.36-.36Z"/><path id="p22" class="cls-1" d="M17.89,105.14a.35.35,0,0,1,.36-.36h4.38a.36.36,0,0,1,.37.36v4.38a.36.36,0,0,1-.37.37H13.14a.36.36,0,0,1-.36-.37V107.7a.36.36,0,0,1,.36-.37h4.38a.36.36,0,0,0,.37-.36Z"/><path id="p23" class="cls-1" d="M12.78,115.37a.36.36,0,0,1,.36-.37H15a.36.36,0,0,1,.36.37v1.82a.36.36,0,0,1-.36.37H13.14a.36.36,0,0,1-.36-.37Z"/><path id="p24" class="cls-1" d="M15.33,20.81a.36.36,0,0,1,.37-.37h6.93a.36.36,0,0,1,.37.37v6.94a.36.36,0,0,1-.37.36H20.81a.36.36,0,0,1-.37-.36V25.92a.35.35,0,0,0-.36-.36H18.25a.36.36,0,0,1-.36-.37V23.37a.36.36,0,0,0-.37-.37H15.7a.36.36,0,0,1-.37-.37Z"/><path id="p25" class="cls-1" d="M15.33,25.92a.36.36,0,0,1,.37-.36h1.82a.36.36,0,0,1,.37.36v1.83a.36.36,0,0,1-.37.36H15.7a.36.36,0,0,1-.37-.36Z"/><path id="p26" class="cls-1" d="M15.33,31a.36.36,0,0,1,.37-.36h1.82a.36.36,0,0,1,.37.36v1.83a.36.36,0,0,1-.37.36H15.7a.36.36,0,0,1-.37-.36Z"/><path id="p27" class="cls-1" d="M15.33,77a.36.36,0,0,1,.37-.36h1.82a.36.36,0,0,1,.37.36v1.83a.36.36,0,0,1-.37.36H15.7a.36.36,0,0,1-.37-.36Z"/><path id="p28" class="cls-1" d="M15.33,97.48a.36.36,0,0,1,.37-.37h4.38a.36.36,0,0,1,.36.37V99.3a.36.36,0,0,1-.36.37H15.7a.36.36,0,0,1-.37-.37Z"/><path id="p29" class="cls-1" d="M15.33,102.59a.36.36,0,0,1,.37-.37h1.82a.36.36,0,0,1,.37.37v1.82a.36.36,0,0,1-.37.37H15.7a.36.36,0,0,1-.37-.37Z"/><path id="p30" class="cls-1" d="M15.33,117.92a.36.36,0,0,1,.37-.36h1.82a.36.36,0,0,1,.37.36v1.83a.36.36,0,0,1-.37.36H15.7a.36.36,0,0,1-.37-.36Z"/><path id="p31" class="cls-1" d="M15.33,123a.36.36,0,0,1,.37-.36h1.82a.36.36,0,0,1,.37.36v1.83a.36.36,0,0,1-.37.36H15.7a.36.36,0,0,1-.37-.36Z"/><path id="p32" class="cls-1" d="M15.33,133.25a.36.36,0,0,1,.37-.36h1.82a.36.36,0,0,1,.37.36v1.83a.36.36,0,0,1-.37.36H15.7a.36.36,0,0,1-.37-.36Z"/><path id="p33" class="cls-1" d="M20.44,2.92a.36.36,0,0,1,.37-.36h1.82a.36.36,0,0,1,.37.36V4.75a.36.36,0,0,1-.37.36H20.81a.36.36,0,0,1-.37-.36Z"/><path id="p34" class="cls-1" d="M23,5.48a.36.36,0,0,1,.37-.37h1.82a.36.36,0,0,1,.37.37V9.86a.36.36,0,0,1-.37.36H20.81a.36.36,0,0,1-.37-.36V8a.36.36,0,0,1,.37-.36h1.82A.36.36,0,0,0,23,7.3Z"/><path id="p35" class="cls-1" d="M20.44,13.14a.36.36,0,0,1,.37-.36h1.82a.36.36,0,0,1,.37.36v4.38a.36.36,0,0,1-.37.37H20.81a.36.36,0,0,1-.37-.37Z"/><path id="p36" class="cls-1" d="M20.44,31a.36.36,0,0,1,.37-.36h1.82A.36.36,0,0,1,23,31v1.83a.36.36,0,0,1-.37.36H20.81a.36.36,0,0,1-.37-.36Z"/><path id="p37" class="cls-1" d="M20.44,43.81a.36.36,0,0,1,.37-.37h1.82a.36.36,0,0,1,.37.37v1.82a.36.36,0,0,1-.37.37H20.81a.36.36,0,0,1-.37-.37Z"/><path id="p38" class="cls-1" d="M20.44,123a.36.36,0,0,1,.37-.36h1.82A.36.36,0,0,1,23,123v1.83a.36.36,0,0,1-.37.36H20.81a.36.36,0,0,1-.37-.36Z"/><path id="p39" class="cls-1" d="M20.44,143.48a.36.36,0,0,1,.37-.37h1.82a.36.36,0,0,1,.37.37v1.82a.36.36,0,0,0,.37.37h4.38a.36.36,0,0,0,.36-.37v-1.82a.36.36,0,0,1,.37-.37H30.3a.36.36,0,0,1,.37.37v12a.36.36,0,0,1-.37.37H20.81a.36.36,0,0,1-.37-.37v-12m5.48,4.74a.36.36,0,0,0-.36.37v1.82a.36.36,0,0,1-.37.37H23.37a.36.36,0,0,0-.37.36V153a.36.36,0,0,0,.37.36h4.38a.35.35,0,0,0,.36-.36v-4.38a.36.36,0,0,0-.36-.37Z"/><path id="p40" class="cls-1" d="M23,120.48a.36.36,0,0,1,.37-.37h1.82a.36.36,0,0,1,.37.37v1.82a.36.36,0,0,1-.37.37H23.37a.36.36,0,0,1-.37-.37Z"/><path id="p41" class="cls-1" d="M25.56.37A.36.36,0,0,1,25.92,0h1.83a.36.36,0,0,1,.36.37V2.19a.36.36,0,0,1-.36.37H25.92a.36.36,0,0,1-.36-.37Z"/><path id="p42" class="cls-1" d="M25.56,13.14a.35.35,0,0,1,.36-.36H30.3a.36.36,0,0,1,.37.36V15a.36.36,0,0,1-.37.36H28.48a.36.36,0,0,0-.37.37v1.82a.36.36,0,0,1-.36.37H25.92a.36.36,0,0,1-.36-.37Z"/><path id="p43" class="cls-1" d="M28.11,18.25a.36.36,0,0,1,.37-.36H30.3a.36.36,0,0,1,.37.36v4.38a.36.36,0,0,1-.37.37H25.92a.36.36,0,0,1-.36-.37V20.81a.36.36,0,0,1,.36-.37h1.83a.35.35,0,0,0,.36-.36Z"/><path id="p44" class="cls-1" d="M25.56,25.92a.35.35,0,0,1,.36-.36h1.83a.35.35,0,0,1,.36.36v1.83a.35.35,0,0,1-.36.36H25.92a.35.35,0,0,1-.36-.36Z"/><path id="p45" class="cls-1" d="M25.56,66.81a.36.36,0,0,1,.36-.37h1.83a.36.36,0,0,1,.36.37v1.82a.36.36,0,0,1-.36.37H25.92a.36.36,0,0,1-.36-.37Z"/><path id="p46" class="cls-1" d="M25.56,138.37a.36.36,0,0,1,.36-.37H30.3a.36.36,0,0,1,.37.37v1.82a.36.36,0,0,1-.37.37H28.48a.36.36,0,0,0-.37.36v1.83a.35.35,0,0,1-.36.36H25.92a.35.35,0,0,1-.36-.36Z"/><path id="p47" class="cls-1" d="M28.11,64.25a.36.36,0,0,1,.37-.36h4.38a.35.35,0,0,1,.36.36v6.94a.36.36,0,0,1-.36.37H28.48a.36.36,0,0,1-.37-.37V69.37a.36.36,0,0,1,.37-.37H30.3a.36.36,0,0,0,.37-.37V66.81a.36.36,0,0,0-.37-.37H28.48a.36.36,0,0,1-.37-.36Z"/><path id="p48" class="cls-1" d="M28.11,77a.36.36,0,0,1,.37-.36h4.38a.35.35,0,0,1,.36.36v1.83a.36.36,0,0,0,.37.36h1.82a.36.36,0,0,1,.37.37v6.93a.36.36,0,0,1-.37.37H33.59a.36.36,0,0,1-.37-.37V84.7a.36.36,0,0,0-.36-.37H31a.35.35,0,0,1-.36-.36V82.14a.36.36,0,0,0-.37-.36H28.48a.36.36,0,0,1-.37-.37Z"/><path id="p49" class="cls-1" d="M30.67.37A.36.36,0,0,1,31,0h4.38a.36.36,0,0,1,.37.37V2.19a.36.36,0,0,0,.36.37H38a.35.35,0,0,1,.36.36V4.75a.35.35,0,0,1-.36.36H36.14a.36.36,0,0,0-.36.37V7.3a.36.36,0,0,1-.37.37H31a.36.36,0,0,1-.36-.37Z"/><path id="p50" class="cls-1" d="M30.67,10.59a.36.36,0,0,1,.36-.37h1.83a.36.36,0,0,1,.36.37v1.82a.36.36,0,0,1-.36.37H31a.36.36,0,0,1-.36-.37Z"/><path id="p51" class="cls-1" d="M30.67,15.7a.36.36,0,0,1,.36-.37h1.83a.36.36,0,0,1,.36.37v1.82a.36.36,0,0,1-.36.37H31a.36.36,0,0,1-.36-.37Z"/><path id="p52" class="cls-1" d="M33.22,18.25a.36.36,0,0,1,.37-.36h1.82a.36.36,0,0,1,.37.36v1.83a.35.35,0,0,0,.36.36H38a.36.36,0,0,1,.36.37v1.82A.36.36,0,0,1,38,23H36.14a.36.36,0,0,0-.36.37v1.82a.36.36,0,0,1-.37.37H31a.36.36,0,0,1-.36-.37V23.37A.36.36,0,0,1,31,23h1.83a.36.36,0,0,0,.36-.37Z"/><path id="p53" class="cls-1" d="M30.67,140.92a.35.35,0,0,1,.36-.36h1.83a.35.35,0,0,1,.36.36v1.83a.35.35,0,0,1-.36.36H31a.35.35,0,0,1-.36-.36Z"/><path id="p54" class="cls-1" d="M40.89,8a.35.35,0,0,1,.36-.36h1.83a.35.35,0,0,1,.36.36v4.38a.36.36,0,0,1-.36.37H41.25a.35.35,0,0,0-.36.36V15a.36.36,0,0,1-.37.36H38.7a.36.36,0,0,0-.37.37v1.82a.36.36,0,0,1-.36.37H36.14a.36.36,0,0,1-.36-.37V15.7a.36.36,0,0,0-.37-.37H33.59a.36.36,0,0,1-.37-.36V13.14a.36.36,0,0,1,.37-.36H38a.36.36,0,0,0,.36-.37V10.59a.36.36,0,0,1,.37-.37h1.82a.36.36,0,0,0,.37-.36Z"/><path id="p55" class="cls-1" d="M35.78,87.25a.35.35,0,0,1,.36-.36H38a.35.35,0,0,1,.36.36v1.83a.36.36,0,0,0,.37.36h1.82a.36.36,0,0,1,.37.37v4.38a.36.36,0,0,1-.37.37H36.14a.36.36,0,0,1-.36-.37V92.37a.36.36,0,0,0-.37-.37H33.59a.36.36,0,0,1-.37-.37V89.81a.36.36,0,0,1,.37-.37h1.82a.36.36,0,0,0,.37-.36Z"/><path id="p56" class="cls-1" d="M33.22,115.37a.36.36,0,0,1,.37-.37h1.82a.36.36,0,0,1,.37.37v1.82a.36.36,0,0,1-.37.37H33.59a.36.36,0,0,1-.37-.37Z"/><path id="p57" class="cls-1" d="M33.22,138.37a.36.36,0,0,1,.37-.37h1.82a.36.36,0,0,1,.37.37v1.82a.36.36,0,0,1-.37.37H33.59a.36.36,0,0,1-.37-.37Z"/><path id="p58" class="cls-1" d="M35.78,140.92a.35.35,0,0,1,.36-.36H38a.35.35,0,0,1,.36.36v1.83a.36.36,0,0,0,.37.36h1.82a.36.36,0,0,1,.37.37v1.82a.36.36,0,0,1-.37.37H33.59a.36.36,0,0,1-.37-.37v-1.82a.36.36,0,0,1,.37-.37h1.82a.36.36,0,0,0,.37-.36Z"/><path id="p59" class="cls-1" d="M35.78,25.92a.35.35,0,0,1,.36-.36H38a.35.35,0,0,1,.36.36v1.83a.35.35,0,0,1-.36.36H36.14a.35.35,0,0,1-.36-.36Z"/><path id="p60" class="cls-1" d="M38.33,66.81a.36.36,0,0,1,.37-.37h1.82a.36.36,0,0,1,.37.37v4.38a.36.36,0,0,1-.37.37H38.7a.36.36,0,0,0-.37.36v1.83a.36.36,0,0,0,.37.36h1.82a.36.36,0,0,1,.37.37V76.3a.36.36,0,0,1-.37.37H36.14a.36.36,0,0,1-.36-.37V69.37a.36.36,0,0,1,.36-.37H38a.36.36,0,0,0,.36-.37Z"/><path id="p61" class="cls-1" d="M35.78,117.92a.35.35,0,0,1,.36-.36H38a.35.35,0,0,1,.36.36v1.83a.35.35,0,0,1-.36.36H36.14a.35.35,0,0,1-.36-.36Z"/><path id="p62" class="cls-1" d="M35.78,133.25a.35.35,0,0,1,.36-.36h4.38a.36.36,0,0,1,.37.36v4.38a.36.36,0,0,0,.36.37h1.83a.36.36,0,0,1,.36.37v1.82a.36.36,0,0,1-.36.37H38.7a.36.36,0,0,1-.37-.37v-1.82A.36.36,0,0,0,38,138H36.14a.36.36,0,0,1-.36-.37Z"/><path id="p63" class="cls-1" d="M35.78,148.59a.36.36,0,0,1,.36-.37H38a.36.36,0,0,1,.36.37V153a.36.36,0,0,0,.37.36h1.82a.36.36,0,0,1,.37.37v1.82a.36.36,0,0,1-.37.37H36.14a.36.36,0,0,1-.36-.37Z"/><path id="p64" class="cls-1" d="M38.33.37A.36.36,0,0,1,38.7,0h1.82a.36.36,0,0,1,.37.37V2.19a.36.36,0,0,1-.37.37H38.7a.36.36,0,0,1-.37-.37Z"/><path id="p65" class="cls-1" d="M38.33,5.48a.36.36,0,0,1,.37-.37h1.82a.36.36,0,0,1,.37.37V7.3a.36.36,0,0,1-.37.37H38.7a.36.36,0,0,1-.37-.37Z"/><path id="p66" class="cls-1" d="M38.33,18.25a.36.36,0,0,1,.37-.36h1.82a.36.36,0,0,1,.37.36v1.83a.36.36,0,0,1-.37.36H38.7a.36.36,0,0,1-.37-.36Z"/><path id="p67" class="cls-1" d="M38.33,84.7a.36.36,0,0,1,.37-.37h1.82a.36.36,0,0,1,.37.37v1.82a.36.36,0,0,1-.37.37H38.7a.36.36,0,0,1-.37-.37Z"/><path id="p68" class="cls-1" d="M40.89,15.7a.36.36,0,0,1,.36-.37h1.83a.36.36,0,0,1,.36.37v1.82a.36.36,0,0,1-.36.37H41.25a.36.36,0,0,1-.36-.37Z"/><path id="p69" class="cls-1" d="M40.89,23.37a.36.36,0,0,1,.36-.37h1.83a.36.36,0,0,1,.36.37v1.82a.36.36,0,0,1-.36.37H41.25a.36.36,0,0,1-.36-.37Z"/><path id="p70" class="cls-1" d="M40.89,79.59a.36.36,0,0,1,.36-.37h1.83a.36.36,0,0,1,.36.37v1.82a.36.36,0,0,1-.36.37H41.25a.36.36,0,0,1-.36-.37Z"/><path id="p71" class="cls-1" d="M43.44,13.14a.36.36,0,0,1,.37-.36h1.82a.36.36,0,0,1,.37.36V15a.36.36,0,0,1-.37.36H43.81a.36.36,0,0,1-.37-.36Z"/><path id="p72" class="cls-1" d="M43.44,20.81a.36.36,0,0,1,.37-.37h1.82a.36.36,0,0,1,.37.37v1.82a.36.36,0,0,1-.37.37H43.81a.36.36,0,0,1-.37-.37Z"/><path id="p73" class="cls-1" d="M43.44,33.59a.36.36,0,0,1,.37-.37h4.38a.36.36,0,0,1,.37.37v1.82a.36.36,0,0,1-.37.37H43.81a.36.36,0,0,1-.37-.37Z"/><path id="p74" class="cls-1" d="M56.22,77a.36.36,0,0,1,.37-.36h1.82a.36.36,0,0,1,.37.36V84a.36.36,0,0,1-.37.36H56.59a.36.36,0,0,1-.37-.36V82.14a.35.35,0,0,0-.36-.36H54a.35.35,0,0,0-.36.36V84a.35.35,0,0,0,.36.36h1.83a.36.36,0,0,1,.36.37v1.82a.36.36,0,0,0,.37.37h1.82a.36.36,0,0,1,.37.36v1.83a.36.36,0,0,1-.37.36H56.59a.36.36,0,0,0-.37.37v4.38a.36.36,0,0,0,.37.37H61a.36.36,0,0,0,.36-.37V92.37A.36.36,0,0,1,61.7,92h4.38a.36.36,0,0,0,.36-.37V89.81a.36.36,0,0,1,.37-.37h1.82a.36.36,0,0,1,.37.37v1.82a.36.36,0,0,0,.37.37H76.3a.36.36,0,0,1,.37.37v1.82a.36.36,0,0,1-.37.37H69.37a.36.36,0,0,0-.37.36v1.83a.36.36,0,0,1-.37.36H66.81a.36.36,0,0,1-.37-.36V94.92a.35.35,0,0,0-.36-.36H64.25a.35.35,0,0,0-.36.36v1.83a.36.36,0,0,1-.37.36H61.7a.36.36,0,0,0-.37.37V99.3a.36.36,0,0,1-.36.37H59.14a.36.36,0,0,1-.36-.37V97.48a.36.36,0,0,0-.37-.37H54a.35.35,0,0,1-.36-.36v-9.5a.36.36,0,0,0-.37-.36H51.48a.36.36,0,0,0-.37.36v1.83a.35.35,0,0,1-.36.36H43.81a.36.36,0,0,1-.37-.36V87.25a.36.36,0,0,1,.37-.36h4.38a.36.36,0,0,0,.37-.37V84.7a.36.36,0,0,1,.36-.37h1.83a.35.35,0,0,0,.36-.36V79.59a.36.36,0,0,1,.37-.37h4.38a.35.35,0,0,0,.36-.36Z"/><path id="p75" class="cls-1" d="M46,.37A.36.36,0,0,1,46.37,0h9.49a.36.36,0,0,1,.36.37V2.19a.36.36,0,0,0,.37.37h1.82a.36.36,0,0,1,.37.36V4.75a.35.35,0,0,0,.36.36H61a.36.36,0,0,1,.36.37V9.86a.35.35,0,0,1-.36.36H59.14a.35.35,0,0,1-.36-.36V8a.36.36,0,0,0-.37-.36H56.59a.36.36,0,0,0-.37.36V9.86a.35.35,0,0,1-.36.36H54a.35.35,0,0,1-.36-.36V8a.36.36,0,0,0-.37-.36H51.48a.36.36,0,0,1-.37-.37V5.48a.36.36,0,0,1,.37-.37H53.3a.36.36,0,0,0,.37-.36V2.92a.36.36,0,0,0-.37-.36H51.48a.36.36,0,0,0-.37.36V4.75a.35.35,0,0,1-.36.36H48.92a.36.36,0,0,0-.36.37V7.3a.36.36,0,0,1-.37.37H46.37A.36.36,0,0,1,46,7.3Z"/><path id="p76" class="cls-1" d="M46,10.59a.36.36,0,0,1,.37-.37h1.82a.36.36,0,0,1,.37.37v1.82a.36.36,0,0,1-.37.37H46.37a.36.36,0,0,1-.37-.37Z"/><path id="p77" class="cls-1" d="M46,15.7a.36.36,0,0,1,.37-.37h1.82a.36.36,0,0,1,.37.37v1.82a.36.36,0,0,1-.37.37H46.37a.36.36,0,0,1-.37-.37Z"/><path id="p78" class="cls-1" d="M46,23.37a.36.36,0,0,1,.37-.37h1.82a.36.36,0,0,1,.37.37v1.82a.36.36,0,0,1-.37.37H46.37a.36.36,0,0,1-.37-.37Z"/><path id="p79" class="cls-1" d="M46,92.37a.36.36,0,0,1,.37-.37h1.82a.36.36,0,0,1,.37.37v4.38a.36.36,0,0,1-.37.36H46.37a.36.36,0,0,1-.37-.36Z"/><path id="p80" class="cls-1" d="M46,105.14a.36.36,0,0,1,.37-.36h1.82a.36.36,0,0,1,.37.36V107a.36.36,0,0,1-.37.36H46.37A.36.36,0,0,1,46,107Z"/><path id="p81" class="cls-1" d="M48.56,13.14a.35.35,0,0,1,.36-.36h1.83a.35.35,0,0,1,.36.36V15a.35.35,0,0,1-.36.36H48.92a.35.35,0,0,1-.36-.36Z"/><path id="p82" class="cls-1" d="M51.11,15.7a.36.36,0,0,1,.37-.37H53.3a.36.36,0,0,1,.37.37v4.38a.36.36,0,0,1-.37.36H51.48a.36.36,0,0,0-.37.37v1.82a.36.36,0,0,1-.36.37H48.92a.36.36,0,0,1-.36-.37V18.25a.35.35,0,0,1,.36-.36h1.83a.36.36,0,0,0,.36-.37Z"/><path id="p83" class="cls-1" d="M48.56,25.92a.35.35,0,0,1,.36-.36h1.83a.35.35,0,0,1,.36.36v1.83a.35.35,0,0,1-.36.36H48.92a.35.35,0,0,1-.36-.36Z"/><path id="p84" class="cls-1" d="M53.67,25.92a.35.35,0,0,1,.36-.36h1.83a.35.35,0,0,1,.36.36V30.3a.36.36,0,0,0,.37.37h1.82a.36.36,0,0,1,.37.36v1.83a.36.36,0,0,1-.37.36H56.59a.36.36,0,0,0-.37.37V38a.35.35,0,0,1-.36.36H54a.35.35,0,0,1-.36-.36V36.14a.36.36,0,0,0-.37-.36H51.48a.36.36,0,0,1-.37-.37V33.59a.36.36,0,0,0-.36-.37H48.92a.35.35,0,0,1-.36-.36V31a.35.35,0,0,1,.36-.36H53.3a.36.36,0,0,0,.37-.37Z"/><path id="p85" class="cls-1" d="M48.56,41.25a.35.35,0,0,1,.36-.36h6.94a.35.35,0,0,1,.36.36v1.83a.35.35,0,0,1-.36.36H54a.36.36,0,0,0-.36.37v1.82a.36.36,0,0,1-.37.37H51.48a.36.36,0,0,1-.37-.37V43.81a.36.36,0,0,0-.36-.37H48.92a.35.35,0,0,1-.36-.36Z"/><path id="p86" class="cls-1" d="M48.56,48.92a.35.35,0,0,1,.36-.36h1.83a.35.35,0,0,1,.36.36v1.83a.35.35,0,0,1-.36.36H48.92a.35.35,0,0,1-.36-.36Z"/><path id="p87" class="cls-1" d="M48.56,97.48a.36.36,0,0,1,.36-.37h1.83a.36.36,0,0,1,.36.37V99.3a.36.36,0,0,0,.37.37H53.3a.36.36,0,0,1,.37.36v1.83a.36.36,0,0,1-.37.36H51.48a.36.36,0,0,0-.37.37v1.82a.36.36,0,0,1-.36.37H48.92a.36.36,0,0,1-.36-.37Z"/><path id="p88" class="cls-1" d="M48.56,107.7a.36.36,0,0,1,.36-.37h1.83a.36.36,0,0,1,.36.37v1.82a.36.36,0,0,1-.36.37H48.92a.36.36,0,0,1-.36-.37Z"/><path id="p89" class="cls-1" d="M51.11,120.48a.36.36,0,0,1,.37-.37H53.3a.36.36,0,0,1,.37.37v1.82a.36.36,0,0,1-.37.37H51.48a.36.36,0,0,1-.37-.37Z"/><path id="p90" class="cls-1" d="M51.11,140.92a.36.36,0,0,1,.37-.36H53.3a.36.36,0,0,1,.37.36v1.83a.36.36,0,0,1-.37.36H51.48a.36.36,0,0,1-.37-.36Z"/><path id="p91" class="cls-1" d="M53.67,13.14a.35.35,0,0,1,.36-.36h4.38a.36.36,0,0,1,.37.36v4.38a.36.36,0,0,1-.37.37H56.59a.36.36,0,0,1-.37-.37V15.7a.36.36,0,0,0-.36-.37H54a.35.35,0,0,1-.36-.36Z"/><path id="p92" class="cls-1" d="M53.67,20.81a.36.36,0,0,1,.36-.37h4.38a.36.36,0,0,1,.37.37v1.82a.36.36,0,0,0,.36.37H61a.36.36,0,0,1,.36.37v1.82a.36.36,0,0,0,.37.37h1.82a.36.36,0,0,0,.37-.37V23.37a.36.36,0,0,1,.36-.37h1.83a.36.36,0,0,1,.36.37v1.82a.36.36,0,0,0,.37.37h1.82a.36.36,0,0,0,.37-.37V23.37a.36.36,0,0,1,.37-.37h1.82a.36.36,0,0,1,.37.37v4.38a.36.36,0,0,1-.37.36H66.81a.36.36,0,0,0-.37.37V30.3a.36.36,0,0,1-.36.37H64.25a.35.35,0,0,0-.36.36v4.38a.36.36,0,0,0,.36.37h6.94a.36.36,0,0,1,.37.36V38a.36.36,0,0,1-.37.36H66.81a.36.36,0,0,0-.37.37v1.82a.36.36,0,0,1-.36.37H64.25a.36.36,0,0,1-.36-.37V38.7a.36.36,0,0,0-.37-.37H61.7a.36.36,0,0,0-.37.37v1.82a.36.36,0,0,0,.37.37h1.82a.36.36,0,0,1,.37.36v4.38a.36.36,0,0,0,.36.37h1.83a.36.36,0,0,1,.36.37v1.82a.36.36,0,0,0,.37.37h6.94a.35.35,0,0,1,.36.36v1.83a.35.35,0,0,1-.36.36H66.81a.36.36,0,0,0-.37.37V53.3a.36.36,0,0,1-.36.37H64.25a.36.36,0,0,1-.36-.37V51.48a.36.36,0,0,0-.37-.37H61.7a.36.36,0,0,1-.37-.36V48.92a.35.35,0,0,0-.36-.36H56.59a.36.36,0,0,1-.37-.37V46.37a.36.36,0,0,1,.37-.37H61a.36.36,0,0,0,.36-.37V43.81a.36.36,0,0,0-.36-.37H59.14a.35.35,0,0,1-.36-.36V36.14a.35.35,0,0,1,.36-.36H61a.36.36,0,0,0,.36-.37V28.48a.36.36,0,0,0-.36-.37H59.14a.35.35,0,0,1-.36-.36V25.92a.36.36,0,0,0-.37-.36H56.59a.36.36,0,0,1-.37-.37V23.37a.36.36,0,0,0-.36-.37H54a.36.36,0,0,1-.36-.37Z"/><path id="p93" class="cls-1" d="M53.67,105.14a.35.35,0,0,1,.36-.36h1.83a.35.35,0,0,1,.36.36v4.38a.36.36,0,0,0,.37.37h1.82a.36.36,0,0,1,.37.36v1.83a.35.35,0,0,0,.36.36h4.38a.36.36,0,0,1,.37.37v4.38a.36.36,0,0,0,.36.37h4.38a.36.36,0,0,1,.37.36v1.83a.36.36,0,0,1-.37.36H66.81a.36.36,0,0,0-.37.37v1.82a.36.36,0,0,1-.36.37H64.25a.36.36,0,0,1-.36-.37v-1.82a.36.36,0,0,0-.37-.37H61.7a.36.36,0,0,0-.37.37v1.82a.36.36,0,0,0,.37.37h1.82a.36.36,0,0,1,.37.36v1.83a.35.35,0,0,0,.36.36h1.83a.35.35,0,0,0,.36-.36V123a.36.36,0,0,1,.37-.36h1.82A.36.36,0,0,1,69,123v1.83a.36.36,0,0,0,.37.36h4.38a.35.35,0,0,0,.36-.36V123a.36.36,0,0,1,.37-.36H76.3a.36.36,0,0,1,.37.36v1.83a.35.35,0,0,0,.36.36h4.38a.36.36,0,0,0,.37-.36V123a.36.36,0,0,0-.37-.36H79.59a.36.36,0,0,1-.37-.37v-1.82a.36.36,0,0,1,.37-.37h6.93a.36.36,0,0,1,.37.37v1.82a.36.36,0,0,0,.36.37h1.83a.36.36,0,0,0,.36-.37v-1.82a.36.36,0,0,1,.37-.37H99.3a.36.36,0,0,0,.37-.36v-1.83a.36.36,0,0,0-.37-.36H97.48a.36.36,0,0,1-.37-.37v-1.82a.36.36,0,0,1,.37-.37h4.38a.36.36,0,0,1,.36.37v9.49a.35.35,0,0,1-.36.36H100a.35.35,0,0,1-.36-.36V123a.36.36,0,0,0-.37-.36H97.48a.36.36,0,0,0-.37.36v1.83a.35.35,0,0,1-.36.36H89.81a.36.36,0,0,0-.37.37v1.82a.36.36,0,0,1-.36.37H87.25a.36.36,0,0,1-.36-.37v-1.82a.36.36,0,0,0-.37-.37H84.7a.36.36,0,0,0-.37.37v1.82a.36.36,0,0,1-.36.37H79.59a.36.36,0,0,0-.37.36V130a.36.36,0,0,0,.37.36h1.82a.36.36,0,0,1,.37.37v1.82a.36.36,0,0,0,.36.37H84a.36.36,0,0,0,.36-.37v-4.38a.36.36,0,0,1,.37-.36h1.82a.36.36,0,0,1,.37.36V130a.35.35,0,0,0,.36.36h1.83a.36.36,0,0,1,.36.37v4.38a.35.35,0,0,1-.36.36H87.25a.36.36,0,0,0-.36.37v4.38a.36.36,0,0,1-.37.37H84.7a.36.36,0,0,0-.37.36v4.38a.36.36,0,0,0,.37.37h1.82a.36.36,0,0,1,.37.36v1.83a.36.36,0,0,1-.37.36H82.14a.36.36,0,0,0-.36.37v1.82a.36.36,0,0,0,.36.37H84a.35.35,0,0,1,.36.36V153a.36.36,0,0,0,.37.36h1.82a.36.36,0,0,1,.37.37v1.82a.36.36,0,0,1-.37.37H77a.36.36,0,0,1-.36-.37V153.7a.36.36,0,0,0-.37-.37H69.37a.36.36,0,0,0-.37.37v1.82a.36.36,0,0,1-.37.37H64.25a.36.36,0,0,1-.36-.37v-4.38a.35.35,0,0,1,.36-.36h1.83a.36.36,0,0,0,.36-.37v-1.82a.36.36,0,0,1,.37-.37H76.3a.36.36,0,0,0,.37-.36V146a.36.36,0,0,0-.37-.36H71.92a.36.36,0,0,1-.36-.37v-1.82a.36.36,0,0,0-.37-.37H69.37a.36.36,0,0,0-.37.37v1.82a.36.36,0,0,1-.37.37H61.7a.36.36,0,0,1-.37-.37v-4.38a.36.36,0,0,1,.37-.36h1.82a.36.36,0,0,1,.37.36v1.83a.35.35,0,0,0,.36.36h1.83a.35.35,0,0,0,.36-.36v-1.83a.35.35,0,0,0-.36-.36H64.25a.36.36,0,0,1-.36-.37v-1.82a.36.36,0,0,1,.36-.37h4.38a.36.36,0,0,1,.37.37v1.82a.36.36,0,0,0,.37.37h1.82a.36.36,0,0,0,.37-.37v-1.82a.36.36,0,0,0-.37-.37H69.37a.36.36,0,0,1-.37-.37v-4.38a.36.36,0,0,1,.37-.36h1.82a.36.36,0,0,0,.37-.37V130.7a.36.36,0,0,0-.37-.37H69.37a.36.36,0,0,0-.37.37v1.82a.36.36,0,0,1-.37.37H66.81a.36.36,0,0,0-.37.36v1.83a.35.35,0,0,1-.36.36H61.7a.36.36,0,0,1-.37-.36V130.7a.36.36,0,0,0-.36-.37H56.59a.36.36,0,0,1-.37-.36v-1.83a.36.36,0,0,1,.37-.36H61a.36.36,0,0,0,.36-.37v-1.82a.36.36,0,0,0-.36-.37H59.14a.35.35,0,0,1-.36-.36v-6.94a.35.35,0,0,1,.36-.36H61a.36.36,0,0,0,.36-.37v-1.82A.36.36,0,0,0,61,115H56.59a.36.36,0,0,1-.37-.37v-1.82a.36.36,0,0,0-.36-.37H54a.35.35,0,0,1-.36-.36v-6.94m10.58,22.64a.35.35,0,0,0-.36.36V130a.35.35,0,0,0,.36.36h1.83a.35.35,0,0,0,.36-.36v-1.83a.35.35,0,0,0-.36-.36H64.25m10.23,0a.36.36,0,0,0-.37.36V130a.36.36,0,0,0,.37.36H76.3a.36.36,0,0,0,.37-.36v-1.83a.36.36,0,0,0-.37-.36H74.48m0,7.66a.36.36,0,0,0-.37.37v6.94a.36.36,0,0,0,.37.36h6.93a.36.36,0,0,0,.37-.36v-6.94a.36.36,0,0,0-.37-.37Z"/><path id="p94" class="cls-1" d="M53.67,117.92a.35.35,0,0,1,.36-.36h1.83a.35.35,0,0,1,.36.36v1.83a.35.35,0,0,1-.36.36H54a.35.35,0,0,1-.36-.36Z"/><path id="p95" class="cls-1" d="M53.67,123a.35.35,0,0,1,.36-.36h1.83a.35.35,0,0,1,.36.36v1.83a.35.35,0,0,1-.36.36H54a.35.35,0,0,1-.36-.36Z"/><path id="p96" class="cls-1" d="M53.67,133.25a.35.35,0,0,1,.36-.36h1.83a.35.35,0,0,1,.36.36v1.83a.35.35,0,0,1-.36.36H54a.35.35,0,0,1-.36-.36Z"/><path id="p97" class="cls-1" d="M56.22,56.59a.36.36,0,0,1,.37-.37h1.82a.36.36,0,0,1,.37.37v1.82a.36.36,0,0,1-.37.37H56.59a.36.36,0,0,1-.37-.37Z"/><path id="p98" class="cls-1" d="M56.22,102.59a.36.36,0,0,1,.37-.37h1.82a.36.36,0,0,1,.37.37v1.82a.36.36,0,0,1-.37.37H56.59a.36.36,0,0,1-.37-.37Z"/><path id="p99" class="cls-1" d="M56.22,138.37a.36.36,0,0,1,.37-.37h1.82a.36.36,0,0,1,.37.37v1.82a.36.36,0,0,1-.37.37H56.59a.36.36,0,0,1-.37-.37Z"/><path id="p100" class="cls-1" d="M58.78.37A.36.36,0,0,1,59.14,0H61a.36.36,0,0,1,.36.37V2.19a.36.36,0,0,1-.36.37H59.14a.36.36,0,0,1-.36-.37Z"/><path id="p101" class="cls-1" d="M58.78,18.25a.35.35,0,0,1,.36-.36H61a.35.35,0,0,1,.36.36v1.83a.35.35,0,0,1-.36.36H59.14a.35.35,0,0,1-.36-.36Z"/><path id="p102" class="cls-1" d="M58.78,51.48a.36.36,0,0,1,.36-.37H61a.36.36,0,0,1,.36.37V53.3a.36.36,0,0,1-.36.37H59.14a.36.36,0,0,1-.36-.37Z"/><path id="p103" class="cls-1" d="M58.78,84.7a.36.36,0,0,1,.36-.37H61a.36.36,0,0,1,.36.37v1.82a.36.36,0,0,1-.36.37H59.14a.36.36,0,0,1-.36-.37Z"/><path id="p104" class="cls-1" d="M58.78,89.81a.36.36,0,0,1,.36-.37H61a.36.36,0,0,1,.36.37v1.82A.36.36,0,0,1,61,92H59.14a.36.36,0,0,1-.36-.37Z"/><path id="p105" class="cls-1" d="M58.78,105.14a.35.35,0,0,1,.36-.36H61a.35.35,0,0,1,.36.36V107a.36.36,0,0,0,.37.36h1.82a.36.36,0,0,0,.37-.36v-1.83a.35.35,0,0,1,.36-.36h1.83a.35.35,0,0,1,.36.36V107a.36.36,0,0,0,.37.36h1.82a.36.36,0,0,1,.37.37v1.82a.36.36,0,0,1-.37.37H66.81a.36.36,0,0,0-.37.36v1.83a.35.35,0,0,1-.36.36H64.25a.35.35,0,0,1-.36-.36v-1.83a.36.36,0,0,0-.37-.36H59.14a.36.36,0,0,1-.36-.37Z"/><path id="p106" class="cls-1" d="M58.78,135.81a.36.36,0,0,1,.36-.37H61a.36.36,0,0,1,.36.37v1.82A.36.36,0,0,1,61,138H59.14a.36.36,0,0,1-.36-.37Z"/><path id="p107" class="cls-1" d="M61.33,13.14a.36.36,0,0,1,.37-.36h1.82a.36.36,0,0,1,.37.36v4.38a.36.36,0,0,1-.37.37H61.7a.36.36,0,0,1-.37-.37Z"/><path id="p108" class="cls-1" d="M61.33,20.81a.36.36,0,0,1,.37-.37h1.82a.36.36,0,0,1,.37.37v1.82a.36.36,0,0,1-.37.37H61.7a.36.36,0,0,1-.37-.37Z"/><path id="p109" class="cls-1" d="M61.33,54a.36.36,0,0,1,.37-.36h1.82a.36.36,0,0,1,.37.36v1.83a.36.36,0,0,1-.37.36H61.7a.36.36,0,0,1-.37-.36Z"/><path id="p110" class="cls-1" d="M61.33,82.14a.36.36,0,0,1,.37-.36h1.82a.36.36,0,0,1,.37.36V84a.36.36,0,0,1-.37.36H61.7a.36.36,0,0,1-.37-.36Z"/><path id="p111" class="cls-1" d="M61.33,100a.36.36,0,0,1,.37-.36h4.38a.35.35,0,0,1,.36.36v1.83a.35.35,0,0,1-.36.36H64.25a.36.36,0,0,0-.36.37v1.82a.36.36,0,0,1-.37.37H61.7a.36.36,0,0,1-.37-.37Z"/><path id="p112" class="cls-1" d="M63.89.37A.36.36,0,0,1,64.25,0h12a.36.36,0,0,1,.37.37V2.19a.36.36,0,0,0,.36.37h1.83a.35.35,0,0,1,.36.36V4.75a.36.36,0,0,0,.37.36h1.82a.36.36,0,0,0,.37-.36V2.92a.35.35,0,0,1,.36-.36h4.38a.36.36,0,0,1,.37.36V4.75a.36.36,0,0,1-.37.36H84.7a.36.36,0,0,0-.37.37v12a.36.36,0,0,0,.37.37h1.82a.36.36,0,0,0,.37-.37V10.59a.36.36,0,0,1,.36-.37h1.83a.35.35,0,0,0,.36-.36V.37A.36.36,0,0,1,89.81,0h1.82A.36.36,0,0,1,92,.37V2.19a.36.36,0,0,0,.37.37h1.82a.36.36,0,0,1,.37.36V4.75a.35.35,0,0,0,.36.36h1.83a.35.35,0,0,0,.36-.36V2.92a.36.36,0,0,1,.37-.36H99.3a.36.36,0,0,0,.37-.37V.37A.36.36,0,0,1,100,0h1.83a.36.36,0,0,1,.36.37V2.19a.36.36,0,0,0,.37.37h1.82a.36.36,0,0,1,.37.36V4.75a.36.36,0,0,1-.37.36h-1.82a.36.36,0,0,0-.37.37V7.3a.36.36,0,0,1-.36.37H94.92a.35.35,0,0,0-.36.36v4.38a.36.36,0,0,1-.37.37H92.37a.36.36,0,0,0-.37.36V15a.36.36,0,0,1-.37.36H89.81a.36.36,0,0,0-.37.37v6.93a.36.36,0,0,1-.36.37H87.25a.36.36,0,0,0-.36.37v1.82a.36.36,0,0,1-.37.37H84.7a.36.36,0,0,1-.37-.37V23.37A.36.36,0,0,0,84,23H79.59a.36.36,0,0,0-.37.37v1.82a.36.36,0,0,1-.36.37H77a.36.36,0,0,1-.36-.37V23.37A.36.36,0,0,0,76.3,23H71.92a.36.36,0,0,1-.36-.37V20.81a.36.36,0,0,0-.37-.37H69.37a.36.36,0,0,1-.37-.36V18.25a.36.36,0,0,1,.37-.36h1.82a.36.36,0,0,0,.37-.37V15.7a.36.36,0,0,0-.37-.37H69.37A.36.36,0,0,1,69,15V8a.36.36,0,0,0-.37-.36H66.81a.36.36,0,0,1-.37-.37V5.48a.36.36,0,0,1,.37-.37h6.94a.35.35,0,0,0,.36-.36V2.92a.35.35,0,0,0-.36-.36H66.81a.36.36,0,0,0-.37.36V4.75a.35.35,0,0,1-.36.36H64.25a.35.35,0,0,1-.36-.36V.37m8,7.3a.35.35,0,0,0-.36.36V9.86a.35.35,0,0,0,.36.36H76.3a.36.36,0,0,0,.37-.36V8a.36.36,0,0,0-.37-.36H71.92m7.67,0a.36.36,0,0,0-.37.36V9.86a.36.36,0,0,0,.37.36h1.82a.36.36,0,0,0,.37-.36V8a.36.36,0,0,0-.37-.36H79.59m-5.11,5.11a.36.36,0,0,0-.37.36v6.94a.36.36,0,0,0,.37.36h6.93a.36.36,0,0,0,.37-.36V13.14a.36.36,0,0,0-.37-.36Z"/><path id="p113" class="cls-1" d="M63.89,18.25a.35.35,0,0,1,.36-.36h1.83a.35.35,0,0,1,.36.36v1.83a.35.35,0,0,1-.36.36H64.25a.35.35,0,0,1-.36-.36Z"/><path id="p114" class="cls-1" d="M63.89,69.37a.36.36,0,0,1,.36-.37h1.83a.36.36,0,0,1,.36.37v1.82a.36.36,0,0,1-.36.37H64.25a.36.36,0,0,1-.36-.37Z"/><path id="p115" class="cls-1" d="M63.89,79.59a.36.36,0,0,1,.36-.37h1.83a.36.36,0,0,1,.36.37v1.82a.36.36,0,0,1-.36.37H64.25a.36.36,0,0,1-.36-.37Z"/><path id="p116" class="cls-1" d="M63.89,84.7a.36.36,0,0,1,.36-.37h1.83a.36.36,0,0,1,.36.37v1.82a.36.36,0,0,1-.36.37H64.25a.36.36,0,0,1-.36-.37Z"/><path id="p117" class="cls-1" d="M66.44,15.7a.36.36,0,0,1,.37-.37h1.82a.36.36,0,0,1,.37.37v1.82a.36.36,0,0,1-.37.37H66.81a.36.36,0,0,1-.37-.37Z"/><path id="p118" class="cls-1" d="M66.44,66.81a.36.36,0,0,1,.37-.37h1.82a.36.36,0,0,1,.37.37v1.82a.36.36,0,0,1-.37.37H66.81a.36.36,0,0,1-.37-.37Z"/><path id="p119" class="cls-1" d="M71.56,28.48a.36.36,0,0,1,.36-.37H76.3a.36.36,0,0,1,.37.37v4.38a.36.36,0,0,1-.37.36H74.48a.36.36,0,0,0-.37.37v1.82a.36.36,0,0,1-.36.37H71.92a.36.36,0,0,1-.36-.37V33.59a.36.36,0,0,0-.37-.37H69.37a.36.36,0,0,1-.37-.36V31a.36.36,0,0,1,.37-.36h1.82a.36.36,0,0,0,.37-.37Z"/><path id="p120" class="cls-1" d="M97.11,31a.36.36,0,0,1,.37-.36h4.38a.35.35,0,0,1,.36.36v1.83a.36.36,0,0,0,.37.36h1.82a.36.36,0,0,1,.37.37v1.82a.36.36,0,0,1-.37.37h-1.82a.36.36,0,0,0-.37.36V38a.35.35,0,0,1-.36.36H100a.36.36,0,0,0-.36.37v1.82a.36.36,0,0,1-.37.37H97.48a.36.36,0,0,0-.37.36v1.83a.35.35,0,0,1-.36.36H94.92a.35.35,0,0,1-.36-.36V41.25a.36.36,0,0,0-.37-.36H92.37a.36.36,0,0,0-.37.36v1.83a.36.36,0,0,1-.37.36H87.25a.36.36,0,0,0-.36.37v4.38a.36.36,0,0,1-.37.37H84.7a.36.36,0,0,1-.37-.37V46.37A.36.36,0,0,0,84,46H77a.36.36,0,0,1-.36-.37V43.81a.36.36,0,0,0-.37-.37H74.48a.36.36,0,0,0-.37.37v1.82a.36.36,0,0,1-.36.37H69.37a.36.36,0,0,1-.37-.37V43.81a.36.36,0,0,1,.37-.37h1.82a.36.36,0,0,0,.37-.36V41.25a.35.35,0,0,1,.36-.36H76.3a.36.36,0,0,0,.37-.37V38.7a.36.36,0,0,0-.37-.37H74.48a.36.36,0,0,1-.37-.36V36.14a.36.36,0,0,1,.37-.36H76.3a.36.36,0,0,0,.37-.37V33.59a.36.36,0,0,1,.36-.37h1.83a.36.36,0,0,1,.36.37v1.82a.36.36,0,0,0,.37.37h1.82a.36.36,0,0,1,.37.36V38a.35.35,0,0,0,.36.36H84a.36.36,0,0,1,.36.37v1.82a.36.36,0,0,1-.36.37H82.14a.35.35,0,0,0-.36.36v1.83a.35.35,0,0,0,.36.36H84a.35.35,0,0,0,.36-.36V41.25a.36.36,0,0,1,.37-.36h4.38a.36.36,0,0,0,.36-.37V38.7a.36.36,0,0,0-.36-.37H84.7a.36.36,0,0,1-.37-.36V36.14a.36.36,0,0,1,.37-.36h6.93a.36.36,0,0,1,.37.36V38a.36.36,0,0,0,.37.36h1.82a.36.36,0,0,0,.37-.36V36.14a.35.35,0,0,1,.36-.36H99.3a.36.36,0,0,0,.37-.37V33.59a.36.36,0,0,0-.37-.37H97.48a.36.36,0,0,1-.37-.36Z"/><path id="p121" class="cls-1" d="M69,64.25a.36.36,0,0,1,.37-.36h1.82a.36.36,0,0,1,.37.36v1.83a.36.36,0,0,1-.37.36H69.37a.36.36,0,0,1-.37-.36Z"/><path id="p122" class="cls-1" d="M69,69.37a.36.36,0,0,1,.37-.37h1.82a.36.36,0,0,1,.37.37v1.82a.36.36,0,0,1-.37.37H69.37a.36.36,0,0,1-.37-.37Z"/><path id="p123" class="cls-1" d="M71.56,97.48a.36.36,0,0,1,.36-.37h1.83a.36.36,0,0,1,.36.37v4.38a.35.35,0,0,1-.36.36H71.92a.36.36,0,0,0-.36.37v1.82a.36.36,0,0,1-.37.37H69.37a.36.36,0,0,1-.37-.37V100a.36.36,0,0,1,.37-.36h1.82a.36.36,0,0,0,.37-.37Z"/><path id="p124" class="cls-1" d="M69,110.25a.36.36,0,0,1,.37-.36h4.38a.35.35,0,0,1,.36.36v1.83a.35.35,0,0,1-.36.36H71.92a.36.36,0,0,0-.36.37v1.82a.36.36,0,0,0,.36.37h1.83a.36.36,0,0,1,.36.37v1.82a.36.36,0,0,1-.36.37H69.37a.36.36,0,0,1-.37-.37Z"/><path id="p125" class="cls-1" d="M71.56,105.14a.35.35,0,0,1,.36-.36h1.83a.35.35,0,0,1,.36.36V107a.35.35,0,0,1-.36.36H71.92a.35.35,0,0,1-.36-.36Z"/><path id="p126" class="cls-1" d="M71.56,120.48a.36.36,0,0,1,.36-.37h1.83a.36.36,0,0,1,.36.37v1.82a.36.36,0,0,1-.36.37H71.92a.36.36,0,0,1-.36-.37Z"/><path id="p127" class="cls-1" d="M74.11,46.37a.36.36,0,0,1,.37-.37H76.3a.36.36,0,0,1,.37.37v1.82a.36.36,0,0,1-.37.37H74.48a.36.36,0,0,1-.37-.37Z"/><path id="p128" class="cls-1" d="M74.11,51.48a.36.36,0,0,1,.37-.37H76.3a.36.36,0,0,1,.37.37V53.3a.36.36,0,0,1-.37.37H74.48a.36.36,0,0,1-.37-.37Z"/><path id="p129" class="cls-1" d="M74.11,87.25a.36.36,0,0,1,.37-.36H76.3a.36.36,0,0,1,.37.36v1.83a.36.36,0,0,1-.37.36H74.48a.36.36,0,0,1-.37-.36Z"/><path id="p130" class="cls-1" d="M74.11,107.7a.36.36,0,0,1,.37-.37H76.3a.36.36,0,0,1,.37.37v1.82a.36.36,0,0,1-.37.37H74.48a.36.36,0,0,1-.37-.37Z"/><path id="p131" class="cls-1" d="M74.11,112.81a.36.36,0,0,1,.37-.37H76.3a.36.36,0,0,1,.37.37v1.82a.36.36,0,0,1-.37.37H74.48a.36.36,0,0,1-.37-.37Z"/><path id="p132" class="cls-1" d="M76.67,15.7a.36.36,0,0,1,.36-.37h1.83a.36.36,0,0,1,.36.37v1.82a.36.36,0,0,1-.36.37H77a.36.36,0,0,1-.36-.37Z"/><path id="p133" class="cls-1" d="M76.67,77a.35.35,0,0,1,.36-.36h1.83a.35.35,0,0,1,.36.36v1.83a.35.35,0,0,1-.36.36H77a.35.35,0,0,1-.36-.36Z"/><path id="p134" class="cls-1" d="M76.67,94.92a.35.35,0,0,1,.36-.36h1.83a.35.35,0,0,1,.36.36v1.83a.36.36,0,0,0,.37.36h1.82a.36.36,0,0,1,.37.37V107a.36.36,0,0,1-.37.36H79.59a.36.36,0,0,1-.37-.36v-4.38a.36.36,0,0,0-.36-.37H77a.35.35,0,0,1-.36-.36Z"/><path id="p135" class="cls-1" d="M76.67,110.25a.35.35,0,0,1,.36-.36h1.83a.35.35,0,0,1,.36.36v1.83a.35.35,0,0,1-.36.36H77a.35.35,0,0,1-.36-.36Z"/><path id="p136" class="cls-1" d="M76.67,117.92a.35.35,0,0,1,.36-.36h1.83a.35.35,0,0,1,.36.36v1.83a.35.35,0,0,1-.36.36H77a.35.35,0,0,1-.36-.36Z"/><path id="p137" class="cls-1" d="M76.67,138.37A.36.36,0,0,1,77,138h1.83a.36.36,0,0,1,.36.37v1.82a.36.36,0,0,1-.36.37H77a.36.36,0,0,1-.36-.37Z"/><path id="p138" class="cls-1" d="M79.22,25.92a.36.36,0,0,1,.37-.36H84a.35.35,0,0,1,.36.36v1.83a.36.36,0,0,0,.37.36h1.82a.36.36,0,0,1,.37.37V30.3a.36.36,0,0,1-.37.37H84.7a.36.36,0,0,0-.37.36v1.83a.35.35,0,0,1-.36.36H79.59a.36.36,0,0,1-.37-.36V31a.36.36,0,0,1,.37-.36h1.82a.36.36,0,0,0,.37-.37V28.48a.36.36,0,0,0-.37-.37H79.59a.36.36,0,0,1-.37-.36Z"/><path id="p140" class="cls-1" d="M79.22,87.25a.36.36,0,0,1,.37-.36h1.82a.36.36,0,0,1,.37.36v1.83a.35.35,0,0,0,.36.36H84a.36.36,0,0,1,.36.37v1.82a.36.36,0,0,0,.37.37h1.82a.36.36,0,0,0,.37-.37V89.81a.36.36,0,0,1,.36-.37h4.38a.36.36,0,0,1,.37.37v1.82a.36.36,0,0,1-.37.37H89.81a.36.36,0,0,0-.37.37v1.82a.36.36,0,0,0,.37.37h1.82a.36.36,0,0,0,.37-.37V92.37a.36.36,0,0,1,.37-.37h1.82a.36.36,0,0,0,.37-.37V89.81a.36.36,0,0,1,.36-.37h1.83a.36.36,0,0,1,.36.37v4.38a.36.36,0,0,1-.36.37H94.92a.35.35,0,0,0-.36.36v1.83a.35.35,0,0,0,.36.36H99.3a.36.36,0,0,1,.37.37V99.3a.36.36,0,0,0,.36.37h1.83a.35.35,0,0,1,.36.36v1.83a.35.35,0,0,1-.36.36H97.48a.36.36,0,0,1-.37-.36V100a.35.35,0,0,0-.36-.36H94.92a.35.35,0,0,0-.36.36V107a.36.36,0,0,1-.37.36H92.37a.36.36,0,0,0-.37.37v1.82a.36.36,0,0,1-.37.37H89.81a.36.36,0,0,1-.37-.37V107.7a.36.36,0,0,0-.36-.37H87.25a.36.36,0,0,0-.36.37v4.38a.36.36,0,0,1-.37.36H84.7a.36.36,0,0,1-.37-.36v-1.83a.35.35,0,0,0-.36-.36H82.14a.36.36,0,0,1-.36-.37V107.7a.36.36,0,0,1,.36-.37H84a.35.35,0,0,0,.36-.36v-1.83a.36.36,0,0,1,.37-.36h1.82a.36.36,0,0,0,.37-.37v-1.82a.36.36,0,0,0-.37-.37H84.7a.36.36,0,0,1-.37-.36V100a.36.36,0,0,1,.37-.36h4.38a.35.35,0,0,1,.36.36v4.38a.36.36,0,0,0,.37.37h1.82a.36.36,0,0,0,.37-.37V100a.36.36,0,0,0-.37-.36H89.81a.36.36,0,0,1-.37-.37V97.48a.36.36,0,0,0-.36-.37H84.7a.36.36,0,0,1-.37-.36V94.92a.35.35,0,0,0-.36-.36H82.14a.36.36,0,0,1-.36-.37V92.37a.36.36,0,0,0-.37-.37H79.59a.36.36,0,0,1-.37-.37Z"/><path id="p141" class="cls-1" d="M81.78,115.37a.36.36,0,0,1,.36-.37h4.38a.36.36,0,0,1,.37.37v1.82a.36.36,0,0,1-.37.37H82.14a.36.36,0,0,1-.36-.37Z"/><path id="p142" class="cls-1" d="M109.89,38.7a.36.36,0,0,1,.36-.37h6.94a.36.36,0,0,1,.37.37v9.49a.36.36,0,0,0,.36.37h1.83a.36.36,0,0,0,.36-.37V46.37a.36.36,0,0,1,.37-.37h1.82a.36.36,0,0,1,.37.37v4.38a.35.35,0,0,0,.36.36h1.83a.36.36,0,0,1,.36.37v4.38a.35.35,0,0,1-.36.36H123a.35.35,0,0,1-.36-.36V54a.36.36,0,0,0-.37-.36h-4.38a.35.35,0,0,0-.36.36v1.83a.36.36,0,0,1-.37.36h-1.82a.36.36,0,0,1-.37-.36V54a.36.36,0,0,0-.37-.36h-1.82a.36.36,0,0,0-.37.36v1.83a.35.35,0,0,1-.36.36h-1.83a.36.36,0,0,0-.36.37v1.82a.36.36,0,0,1-.37.37H107.7a.36.36,0,0,1-.37-.37V56.59a.36.36,0,0,0-.36-.37h-4.38a.36.36,0,0,0-.37.37v6.93a.36.36,0,0,0,.37.37h1.82a.36.36,0,0,0,.37-.37V61.7a.36.36,0,0,1,.36-.37H107a.36.36,0,0,1,.36.37v4.38a.35.35,0,0,1-.36.36H100a.36.36,0,0,0-.36.37v1.82A.36.36,0,0,0,100,69h1.83a.36.36,0,0,1,.36.37v9.49a.35.35,0,0,1-.36.36H100a.36.36,0,0,0-.36.37v1.82a.36.36,0,0,1-.37.37H97.48a.36.36,0,0,1-.37-.37V77a.36.36,0,0,1,.37-.36H99.3a.36.36,0,0,0,.37-.37V71.92a.36.36,0,0,0-.37-.36H94.92a.35.35,0,0,0-.36.36V76.3a.36.36,0,0,1-.37.37H92.37A.36.36,0,0,0,92,77v1.83a.36.36,0,0,1-.37.36H89.81a.36.36,0,0,1-.37-.36V71.92a.36.36,0,0,1,.37-.36h1.82a.36.36,0,0,0,.37-.37V69.37a.36.36,0,0,1,.37-.37h1.82a.36.36,0,0,0,.37-.37V66.81a.36.36,0,0,1,.36-.37h1.83a.35.35,0,0,0,.36-.36V64.25a.36.36,0,0,1,.37-.36H99.3a.36.36,0,0,0,.37-.37V61.7a.36.36,0,0,0-.37-.37h-12a.35.35,0,0,1-.36-.36V59.14a.36.36,0,0,0-.37-.36H84.7a.36.36,0,0,1-.37-.37V56.59a.36.36,0,0,1,.37-.37h1.82a.36.36,0,0,0,.37-.36V54a.35.35,0,0,1,.36-.36h1.83a.35.35,0,0,1,.36.36v4.38a.36.36,0,0,0,.37.37h1.82a.36.36,0,0,0,.37-.37V54a.36.36,0,0,1,.37-.36h1.82a.36.36,0,0,1,.37.36v1.83a.35.35,0,0,0,.36.36h1.83a.36.36,0,0,1,.36.37v1.82a.36.36,0,0,0,.37.37H99.3a.36.36,0,0,0,.37-.37V54a.35.35,0,0,1,.36-.36h1.83a.36.36,0,0,0,.36-.37V51.48a.36.36,0,0,0-.36-.37H97.48a.36.36,0,0,1-.37-.36V48.92a.36.36,0,0,1,.37-.36h4.38a.36.36,0,0,0,.36-.37V46.37a.36.36,0,0,1,.37-.37h1.82a.36.36,0,0,1,.37.37v4.38a.35.35,0,0,0,.36.36H107a.36.36,0,0,1,.36.37V53.3a.36.36,0,0,0,.37.37h1.82a.36.36,0,0,0,.37-.37V51.48a.36.36,0,0,1,.36-.37h4.38a.36.36,0,0,0,.37-.36V48.92a.36.36,0,0,0-.37-.36h-4.38a.36.36,0,0,1-.36-.37V46.37a.36.36,0,0,0-.37-.37H107.7a.36.36,0,0,1-.37-.37V43.81a.36.36,0,0,0-.36-.37h-1.83a.35.35,0,0,1-.36-.36V41.25a.35.35,0,0,1,.36-.36h4.38a.36.36,0,0,0,.37-.37V38.7m.36,2.19a.35.35,0,0,0-.36.36v1.83a.35.35,0,0,0,.36.36h1.83a.36.36,0,0,1,.36.37v1.82a.36.36,0,0,0,.37.37h1.82a.36.36,0,0,0,.37-.37V41.25a.36.36,0,0,0-.37-.36Z"/><path id="p143" class="cls-1" d="M84.33,64.25a.36.36,0,0,1,.37-.36h1.82a.36.36,0,0,1,.37.36v4.38a.36.36,0,0,1-.37.37H84.7a.36.36,0,0,1-.37-.37Z"/><path id="p144" class="cls-1" d="M84.33,87.25a.36.36,0,0,1,.37-.36h1.82a.36.36,0,0,1,.37.36v1.83a.36.36,0,0,1-.37.36H84.7a.36.36,0,0,1-.37-.36Z"/><path id="p145" class="cls-1" d="M86.89,48.92a.35.35,0,0,1,.36-.36h1.83a.35.35,0,0,1,.36.36v1.83a.35.35,0,0,1-.36.36H87.25a.35.35,0,0,1-.36-.36Z"/><path id="p146" class="cls-1" d="M92,79.59a.36.36,0,0,1,.37-.37h1.82a.36.36,0,0,1,.37.37V84a.36.36,0,0,1-.37.36H92.37a.36.36,0,0,0-.37.37v1.82a.36.36,0,0,1-.37.37H89.81a.36.36,0,0,1-.37-.37V84.7a.36.36,0,0,0-.36-.37H87.25a.35.35,0,0,1-.36-.36V82.14a.35.35,0,0,1,.36-.36h4.38a.36.36,0,0,0,.37-.37Z"/><path id="p147" class="cls-1" d="M86.89,140.92a.35.35,0,0,1,.36-.36h1.83a.35.35,0,0,1,.36.36v1.83a.35.35,0,0,1-.36.36H87.25a.35.35,0,0,1-.36-.36Z"/><path id="p148" class="cls-1" d="M92,15.7a.36.36,0,0,1,.37-.37h1.82a.36.36,0,0,1,.37.37v6.93a.36.36,0,0,0,.36.37h1.83a.36.36,0,0,0,.36-.37V20.81a.36.36,0,0,1,.37-.37H99.3a.36.36,0,0,1,.37.37v6.94a.36.36,0,0,1-.37.36H97.48a.36.36,0,0,1-.37-.36V25.92a.35.35,0,0,0-.36-.36H92.37a.36.36,0,0,0-.37.36V30.3a.36.36,0,0,1-.37.37H89.81a.36.36,0,0,1-.37-.37V23.37a.36.36,0,0,1,.37-.37h1.82a.36.36,0,0,0,.37-.37Z"/><path id="p149" class="cls-1" d="M89.44,51.48a.36.36,0,0,1,.37-.37h1.82a.36.36,0,0,1,.37.37V53.3a.36.36,0,0,1-.37.37H89.81a.36.36,0,0,1-.37-.37Z"/><path id="p150" class="cls-1" d="M89.44,64.25a.36.36,0,0,1,.37-.36h1.82a.36.36,0,0,1,.37.36v1.83a.36.36,0,0,1-.37.36H89.81a.36.36,0,0,1-.37-.36Z"/><path id="p151" class="cls-1" d="M94.56,130.7a.36.36,0,0,1,.36-.37h1.83a.36.36,0,0,1,.36.37v4.38a.35.35,0,0,1-.36.36H94.92a.36.36,0,0,0-.36.37v4.38a.36.36,0,0,1-.37.37H89.81a.36.36,0,0,1-.37-.37v-4.38a.36.36,0,0,1,.37-.37h1.82a.36.36,0,0,0,.37-.36v-1.83a.36.36,0,0,1,.37-.36h1.82a.36.36,0,0,0,.37-.37Z"/><path id="p152" class="cls-1" d="M89.44,143.48a.36.36,0,0,1,.37-.37h1.82a.36.36,0,0,1,.37.37v4.38a.36.36,0,0,1-.37.36H89.81a.36.36,0,0,1-.37-.36Z"/><path id="p153" class="cls-1" d="M92,151.14a.36.36,0,0,1,.37-.36h1.82a.36.36,0,0,1,.37.36v4.38a.36.36,0,0,1-.37.37H89.81a.36.36,0,0,1-.37-.37V153.7a.36.36,0,0,1,.37-.37h1.82A.36.36,0,0,0,92,153Z"/><path id="p154" class="cls-1" d="M92,46.37a.36.36,0,0,1,.37-.37h4.38a.36.36,0,0,1,.36.37v1.82a.36.36,0,0,1-.36.37H92.37a.36.36,0,0,1-.37-.37Z"/><path id="p155" class="cls-1" d="M92,87.25a.36.36,0,0,1,.37-.36h1.82a.36.36,0,0,1,.37.36v1.83a.36.36,0,0,1-.37.36H92.37a.36.36,0,0,1-.37-.36Z"/><path id="p156" class="cls-1" d="M92,110.25a.36.36,0,0,1,.37-.36h1.82a.36.36,0,0,1,.37.36v1.83a.36.36,0,0,1-.37.36H92.37a.36.36,0,0,1-.37-.36Z"/><path id="p157" class="cls-1" d="M92,128.14a.36.36,0,0,1,.37-.36h1.82a.36.36,0,0,1,.37.36V130a.36.36,0,0,1-.37.36H92.37A.36.36,0,0,1,92,130Z"/><path id="p158" class="cls-1" d="M94.56,28.48a.36.36,0,0,1,.36-.37h1.83a.36.36,0,0,1,.36.37V30.3a.36.36,0,0,1-.36.37H94.92a.36.36,0,0,1-.36-.37Z"/><path id="p159" class="cls-1" d="M94.56,51.48a.36.36,0,0,1,.36-.37h1.83a.36.36,0,0,1,.36.37V53.3a.36.36,0,0,1-.36.37H94.92a.36.36,0,0,1-.36-.37Z"/><path id="p160" class="cls-1" d="M94.56,143.48a.36.36,0,0,1,.36-.37H99.3a.36.36,0,0,1,.37.37v1.82a.36.36,0,0,1-.37.37H97.48a.36.36,0,0,0-.37.36v1.83a.35.35,0,0,1-.36.36H94.92a.35.35,0,0,1-.36-.36Z"/><path id="p161" class="cls-1" d="M97.11,13.14a.36.36,0,0,1,.37-.36h4.38a.35.35,0,0,1,.36.36V15a.35.35,0,0,1-.36.36H100a.36.36,0,0,0-.36.37v1.82a.36.36,0,0,1-.37.37H97.48a.36.36,0,0,1-.37-.37Z"/><path id="p162" class="cls-1" d="M97.11,105.14a.36.36,0,0,1,.37-.36H99.3a.36.36,0,0,1,.37.36V107a.36.36,0,0,1-.37.36H97.48a.36.36,0,0,1-.37-.36Z"/><path id="p163" class="cls-1" d="M97.11,110.25a.36.36,0,0,1,.37-.36H99.3a.36.36,0,0,1,.37.36v1.83a.36.36,0,0,1-.37.36H97.48a.36.36,0,0,1-.37-.36Z"/><path id="p164" class="cls-1" d="M99.67,18.25a.35.35,0,0,1,.36-.36h1.83a.35.35,0,0,1,.36.36v1.83a.35.35,0,0,1-.36.36H100a.35.35,0,0,1-.36-.36Z"/><path id="p165" class="cls-1" d="M99.67,41.25a.35.35,0,0,1,.36-.36h1.83a.35.35,0,0,1,.36.36v1.83a.35.35,0,0,1-.36.36H100a.35.35,0,0,1-.36-.36Z"/><path id="p166" class="cls-1" d="M99.67,82.14a.35.35,0,0,1,.36-.36h1.83a.35.35,0,0,1,.36.36V84a.36.36,0,0,0,.37.36H107a.36.36,0,0,1,.36.37v1.82a.36.36,0,0,1-.36.37h-1.83a.35.35,0,0,0-.36.36v1.83a.36.36,0,0,1-.37.36h-1.82a.36.36,0,0,0-.37.37v1.82a.36.36,0,0,1-.36.37H100a.36.36,0,0,1-.36-.37Z"/><path id="p167" class="cls-1" d="M109.89,128.14a.35.35,0,0,1,.36-.36h1.83a.35.35,0,0,1,.36.36v4.38a.36.36,0,0,1-.36.37H107.7a.36.36,0,0,0-.37.36v1.83a.36.36,0,0,0,.37.36h1.82a.36.36,0,0,1,.37.37v1.82a.36.36,0,0,0,.36.37h1.83a.36.36,0,0,1,.36.37v1.82a.36.36,0,0,1-.36.37H107.7a.36.36,0,0,1-.37-.37v-1.82A.36.36,0,0,0,107,138H100a.36.36,0,0,1-.36-.37V130.7a.36.36,0,0,1,.36-.37h1.83a.36.36,0,0,1,.36.37v4.38a.36.36,0,0,0,.37.36h1.82a.36.36,0,0,0,.37-.36V130.7a.36.36,0,0,1,.36-.37h4.38a.36.36,0,0,0,.37-.36Z"/><path id="p168" class="cls-1" d="M99.67,140.92a.35.35,0,0,1,.36-.36h4.38a.36.36,0,0,1,.37.36v4.38a.36.36,0,0,1-.37.37h-1.82a.36.36,0,0,1-.37-.37v-1.82a.36.36,0,0,0-.36-.37H100a.35.35,0,0,1-.36-.36Z"/><path id="p169" class="cls-1" d="M99.67,146a.35.35,0,0,1,.36-.36h1.83a.35.35,0,0,1,.36.36v1.83a.35.35,0,0,1-.36.36H100a.35.35,0,0,1-.36-.36Z"/><path id="p170" class="cls-1" d="M99.67,151.14a.35.35,0,0,1,.36-.36h1.83a.35.35,0,0,1,.36.36V153a.35.35,0,0,1-.36.36H100a.35.35,0,0,1-.36-.36Z"/><path id="p171" class="cls-1" d="M102.22,10.59a.36.36,0,0,1,.37-.37H107a.36.36,0,0,1,.36.37V15a.35.35,0,0,1-.36.36h-1.83a.35.35,0,0,1-.36-.36V13.14a.36.36,0,0,0-.37-.36h-1.82a.36.36,0,0,1-.37-.37Z"/><path id="p172" class="cls-1" d="M102.22,15.7a.36.36,0,0,1,.37-.37h1.82a.36.36,0,0,1,.37.37v1.82a.36.36,0,0,1-.37.37h-1.82a.36.36,0,0,1-.37-.37Z"/><path id="p173" class="cls-1" d="M104.78,18.25a.35.35,0,0,1,.36-.36H107a.35.35,0,0,1,.36.36v1.83a.36.36,0,0,0,.37.36h1.82a.36.36,0,0,1,.37.37v1.82a.36.36,0,0,0,.36.37h1.83a.36.36,0,0,1,.36.37v1.82a.36.36,0,0,1-.36.37h-1.83a.35.35,0,0,0-.36.36V30.3a.36.36,0,0,0,.36.37h1.83a.35.35,0,0,1,.36.36v1.83a.36.36,0,0,0,.37.36h1.82a.36.36,0,0,0,.37-.36V31a.36.36,0,0,1,.37-.36h1.82a.36.36,0,0,1,.37.36v1.83a.35.35,0,0,0,.36.36h1.83a.36.36,0,0,1,.36.37v1.82a.36.36,0,0,1-.36.37h-9.5a.36.36,0,0,1-.36-.37V33.59a.36.36,0,0,0-.37-.37h-4.38a.35.35,0,0,1-.36-.36V31a.36.36,0,0,0-.37-.36h-1.82a.36.36,0,0,1-.37-.37V23.37a.36.36,0,0,1,.37-.37h1.82a.36.36,0,0,1,.37.37v4.38a.35.35,0,0,0,.36.36H107a.35.35,0,0,0,.36-.36V23.37A.36.36,0,0,0,107,23h-1.83a.36.36,0,0,1-.36-.37Z"/><path id="p174" class="cls-1" d="M102.22,94.92a.36.36,0,0,1,.37-.36h1.82a.36.36,0,0,1,.37.36v1.83a.36.36,0,0,1-.37.36h-1.82a.36.36,0,0,1-.37-.36Z"/><path id="p175" class="cls-1" d="M104.78,100a.35.35,0,0,1,.36-.36H107a.35.35,0,0,1,.36.36v1.83a.36.36,0,0,0,.37.36h1.82a.36.36,0,0,1,.37.37v1.82a.36.36,0,0,0,.36.37h1.83a.36.36,0,0,0,.36-.37V100a.36.36,0,0,1,.37-.36h1.82a.36.36,0,0,1,.37.36V107a.36.36,0,0,1-.37.36h-4.38a.36.36,0,0,0-.36.37v1.82a.36.36,0,0,1-.37.37H107.7a.36.36,0,0,0-.37.36v1.83a.35.35,0,0,1-.36.36h-1.83a.35.35,0,0,1-.36-.36v-1.83a.36.36,0,0,0-.37-.36h-1.82a.36.36,0,0,1-.37-.37v-4.38a.36.36,0,0,1,.37-.36h1.82a.36.36,0,0,1,.37.36V107a.35.35,0,0,0,.36.36H107a.35.35,0,0,0,.36-.36v-1.83a.35.35,0,0,0-.36-.36h-1.83a.36.36,0,0,1-.36-.37Z"/><path id="p176" class="cls-1" d="M102.22,128.14a.36.36,0,0,1,.37-.36h1.82a.36.36,0,0,1,.37.36V130a.36.36,0,0,1-.37.36h-1.82a.36.36,0,0,1-.37-.36Z"/><path id="p177" class="cls-1" d="M102.22,148.59a.36.36,0,0,1,.37-.37h1.82a.36.36,0,0,1,.37.37v1.82a.36.36,0,0,1-.37.37h-1.82a.36.36,0,0,1-.37-.37Z"/><path id="p178" class="cls-1" d="M104.78.37a.36.36,0,0,1,.36-.37h6.94a.36.36,0,0,1,.36.37V2.19a.36.36,0,0,0,.37.37h4.38a.36.36,0,0,1,.37.36V4.75a.36.36,0,0,1-.37.36h-1.82a.36.36,0,0,0-.37.37V7.3a.36.36,0,0,1-.37.37h-1.82a.36.36,0,0,1-.37-.37V5.48a.36.36,0,0,0-.36-.37h-1.83a.36.36,0,0,0-.36.37V7.3a.36.36,0,0,1-.37.37H107.7a.36.36,0,0,1-.37-.37V2.92a.35.35,0,0,0-.36-.36h-1.83a.36.36,0,0,1-.36-.37Z"/><path id="p179" class="cls-1" d="M104.78,69.37a.36.36,0,0,1,.36-.37H107a.36.36,0,0,1,.36.37v4.38a.35.35,0,0,1-.36.36h-1.83a.35.35,0,0,1-.36-.36Z"/><path id="p180" class="cls-1" d="M104.78,79.59a.36.36,0,0,1,.36-.37H107a.36.36,0,0,1,.36.37v1.82a.36.36,0,0,1-.36.37h-1.83a.36.36,0,0,1-.36-.37Z"/><path id="p181" class="cls-1" d="M104.78,89.81a.36.36,0,0,1,.36-.37h4.38a.36.36,0,0,1,.37.37v1.82a.36.36,0,0,1-.37.37h-4.38a.36.36,0,0,1-.36-.37Z"/><path id="p182" class="cls-1" d="M104.78,125.59a.36.36,0,0,1,.36-.37H107a.36.36,0,0,1,.36.37v1.82a.36.36,0,0,1-.36.37h-1.83a.36.36,0,0,1-.36-.37Z"/><path id="p183" class="cls-1" d="M104.78,153.7a.36.36,0,0,1,.36-.37H107a.36.36,0,0,1,.36.37v1.82a.36.36,0,0,1-.36.37h-1.83a.36.36,0,0,1-.36-.37Z"/><path id="p184" class="cls-1" d="M107.33,15.7a.36.36,0,0,1,.37-.37h1.82a.36.36,0,0,1,.37.37v1.82a.36.36,0,0,1-.37.37H107.7a.36.36,0,0,1-.37-.37Z"/><path id="p185" class="cls-1" d="M107.33,74.48a.36.36,0,0,1,.37-.37h1.82a.36.36,0,0,1,.37.37V76.3a.36.36,0,0,1-.37.37H107.7a.36.36,0,0,1-.37-.37Z"/><path id="p186" class="cls-1" d="M109.89,79.59a.36.36,0,0,1,.36-.37h1.83a.36.36,0,0,1,.36.37v9.49a.35.35,0,0,1-.36.36h-1.83a.35.35,0,0,1-.36-.36V84.7a.36.36,0,0,0-.37-.37H107.7a.36.36,0,0,1-.37-.36V82.14a.36.36,0,0,1,.37-.36h1.82a.36.36,0,0,0,.37-.37Z"/><path id="p187" class="cls-1" d="M107.33,94.92a.36.36,0,0,1,.37-.36h1.82a.36.36,0,0,1,.37.36V99.3a.36.36,0,0,1-.37.37H107.7a.36.36,0,0,1-.37-.37Z"/><path id="p188" class="cls-1" d="M115,107.7a.36.36,0,0,1,.37-.37h1.82a.36.36,0,0,1,.37.37v9.49a.36.36,0,0,1-.37.37h-1.82a.36.36,0,0,0-.37.36v1.83a.36.36,0,0,0,.37.36h1.82a.36.36,0,0,1,.37.37v4.38a.35.35,0,0,0,.36.36h1.83a.36.36,0,0,1,.36.37v6.93a.36.36,0,0,0,.37.37h1.82a.36.36,0,0,0,.37-.37V130.7a.36.36,0,0,1,.36-.37h4.38a.36.36,0,0,0,.37-.36v-1.83a.35.35,0,0,1,.36-.36H130a.36.36,0,0,0,.36-.37V123a.36.36,0,0,1,.37-.36h4.38a.35.35,0,0,1,.36.36v1.83a.35.35,0,0,1-.36.36h-1.83a.36.36,0,0,0-.36.37V130a.36.36,0,0,1-.37.36H130.7a.36.36,0,0,0-.37.37v1.82a.36.36,0,0,1-.36.37h-4.38a.36.36,0,0,0-.37.36v1.83a.36.36,0,0,0,.37.36h6.93a.36.36,0,0,0,.37-.36v-1.83a.35.35,0,0,1,.36-.36h4.38a.36.36,0,0,0,.37-.37v-4.38a.36.36,0,0,1,.37-.36h1.82a.36.36,0,0,1,.37.36v4.38a.36.36,0,0,0,.36.37h6.94a.35.35,0,0,1,.36.36v1.83a.36.36,0,0,0,.37.36h1.82a.36.36,0,0,1,.37.37v4.38a.36.36,0,0,0,.36.37H153a.35.35,0,0,1,.36.36v1.83a.35.35,0,0,1-.36.36h-1.83a.36.36,0,0,0-.36.37v1.82a.36.36,0,0,1-.37.37h-1.82a.36.36,0,0,1-.37-.37v-4.38a.35.35,0,0,0-.36-.36H146a.35.35,0,0,0-.36.36v4.38a.36.36,0,0,1-.37.37h-1.82a.36.36,0,0,0-.37.36v1.83a.36.36,0,0,0,.37.36h1.82a.36.36,0,0,1,.37.37v1.82a.36.36,0,0,1-.37.37h-1.82a.36.36,0,0,0-.37.36V153a.36.36,0,0,0,.37.36h4.38a.36.36,0,0,1,.36.37v1.82a.36.36,0,0,1-.36.37h-6.94a.36.36,0,0,1-.36-.37v-4.38a.36.36,0,0,0-.37-.36h-4.38a.36.36,0,0,1-.37-.37V146a.35.35,0,0,0-.36-.36h-1.83a.35.35,0,0,0-.36.36v1.83a.36.36,0,0,1-.37.36H130.7a.36.36,0,0,1-.37-.36v-6.94a.35.35,0,0,0-.36-.36h-1.83a.36.36,0,0,1-.36-.37v-1.82a.36.36,0,0,0-.37-.37H123a.36.36,0,0,1-.36-.37v-1.82a.36.36,0,0,0-.37-.37h-1.82a.36.36,0,0,0-.37.37v1.82a.36.36,0,0,1-.36.37h-4.38a.36.36,0,0,1-.37-.37v-1.82a.36.36,0,0,0-.37-.37h-1.82a.36.36,0,0,1-.37-.36v-1.83a.36.36,0,0,1,.37-.36h1.82a.36.36,0,0,0,.37-.37v-6.93a.36.36,0,0,0-.37-.37H107.7a.36.36,0,0,1-.37-.36V123a.36.36,0,0,1,.37-.36h1.82a.36.36,0,0,0,.37-.37v-1.82a.36.36,0,0,0-.37-.37H107.7a.36.36,0,0,1-.37-.36v-4.38a.36.36,0,0,1,.37-.37h1.82a.36.36,0,0,0,.37-.37v-1.82a.36.36,0,0,1,.36-.37h1.83a.36.36,0,0,1,.36.37v1.82a.36.36,0,0,0,.37.37h1.82a.36.36,0,0,0,.37-.37V107.7m20.81,27.74a.36.36,0,0,0-.37.37v6.94a.36.36,0,0,0,.37.36h6.94a.35.35,0,0,0,.36-.36v-6.94a.36.36,0,0,0-.36-.37h-6.94m2.56,10.23a.36.36,0,0,0-.37.36v1.83a.36.36,0,0,0,.37.36h1.82a.36.36,0,0,0,.37-.36V146a.36.36,0,0,0-.37-.36Z"/><path id="p189" class="cls-1" d="M112.44,140.92a.36.36,0,0,1,.37-.36h4.38a.36.36,0,0,1,.37.36v1.83a.36.36,0,0,1-.37.36h-1.82a.36.36,0,0,0-.37.37v1.82a.36.36,0,0,1-.37.37h-4.38a.35.35,0,0,0-.36.36v1.83a.35.35,0,0,0,.36.36h1.83a.36.36,0,0,1,.36.37v1.82a.36.36,0,0,1-.36.37H107.7a.36.36,0,0,1-.37-.37v-6.93a.36.36,0,0,1,.37-.37h4.38a.35.35,0,0,0,.36-.36Z"/><path id="p190" class="cls-1" d="M109.89,8a.35.35,0,0,1,.36-.36h1.83a.35.35,0,0,1,.36.36V9.86a.36.36,0,0,0,.37.36h1.82a.36.36,0,0,0,.37-.36V8a.36.36,0,0,1,.37-.36h1.82a.36.36,0,0,1,.37.36v4.38a.36.36,0,0,1-.37.37h-1.82a.36.36,0,0,0-.37.36v6.94a.36.36,0,0,1-.37.36h-4.38a.35.35,0,0,1-.36-.36V18.25a.35.35,0,0,1,.36-.36h1.83a.36.36,0,0,0,.36-.37V13.14a.35.35,0,0,0-.36-.36h-1.83a.36.36,0,0,1-.36-.37Z"/><path id="p191" class="cls-1" d="M109.89,64.25a.35.35,0,0,1,.36-.36h1.83a.35.35,0,0,1,.36.36v1.83a.36.36,0,0,0,.37.36h6.94a.36.36,0,0,1,.36.37v1.82a.36.36,0,0,1-.36.37h-1.83a.36.36,0,0,0-.36.37v9.49a.36.36,0,0,1-.37.36h-1.82a.36.36,0,0,1-.37-.36V77a.36.36,0,0,0-.37-.36h-1.82a.36.36,0,0,1-.37-.37V71.92a.36.36,0,0,1,.37-.36h1.82a.36.36,0,0,0,.37-.37V69.37a.36.36,0,0,0-.37-.37h-4.38a.36.36,0,0,1-.36-.37Z"/><path id="p192" class="cls-1" d="M112.44,151.14a.36.36,0,0,1,.37-.36h6.94a.35.35,0,0,1,.36.36V153a.35.35,0,0,1-.36.36h-1.83a.36.36,0,0,0-.36.37v1.82a.36.36,0,0,1-.37.37h-6.94a.36.36,0,0,1-.36-.37V153.7a.36.36,0,0,1,.36-.37h1.83a.35.35,0,0,0,.36-.36Z"/><path id="p193" class="cls-1" d="M112.44,25.92a.36.36,0,0,1,.37-.36h1.82a.36.36,0,0,1,.37.36v1.83a.36.36,0,0,1-.37.36h-1.82a.36.36,0,0,1-.37-.36Z"/><path id="p194" class="cls-1" d="M112.44,56.59a.36.36,0,0,1,.37-.37h1.82a.36.36,0,0,1,.37.37v1.82a.36.36,0,0,1-.37.37h-1.82a.36.36,0,0,1-.37-.37Z"/><path id="p195" class="cls-1" d="M115,59.14a.36.36,0,0,1,.37-.36h1.82a.36.36,0,0,1,.37.36V61a.36.36,0,0,1-.37.36h-1.82A.36.36,0,0,1,115,61Z"/><path id="p196" class="cls-1" d="M115,82.14a.36.36,0,0,1,.37-.36h1.82a.36.36,0,0,1,.37.36v4.38a.36.36,0,0,1-.37.37h-1.82a.36.36,0,0,1-.37-.37Z"/><path id="p197" class="cls-1" d="M115,92.37a.36.36,0,0,1,.37-.37h1.82a.36.36,0,0,1,.37.37v1.82a.36.36,0,0,0,.36.37h1.83a.35.35,0,0,1,.36.36v1.83a.35.35,0,0,1-.36.36h-4.38a.36.36,0,0,1-.37-.36Z"/><path id="p198" class="cls-1" d="M115,146a.36.36,0,0,1,.37-.36h1.82a.36.36,0,0,1,.37.36v1.83a.36.36,0,0,1-.37.36h-1.82a.36.36,0,0,1-.37-.36Z"/><path id="p199" class="cls-1" d="M117.56,15.7a.36.36,0,0,1,.36-.37h1.83a.36.36,0,0,1,.36.37v4.38a.35.35,0,0,1-.36.36h-1.83a.35.35,0,0,1-.36-.36Z"/><path id="p200" class="cls-1" d="M117.56,28.48a.36.36,0,0,1,.36-.37h6.94a.36.36,0,0,1,.36.37V30.3a.36.36,0,0,1-.36.37h-6.94a.36.36,0,0,1-.36-.37Z"/><path id="p201" class="cls-1" d="M117.56,87.25a.35.35,0,0,1,.36-.36h4.38a.36.36,0,0,1,.37.36v1.83a.35.35,0,0,0,.36.36h1.83a.36.36,0,0,1,.36.37v4.38a.36.36,0,0,0,.37.37H130a.35.35,0,0,1,.36.36v1.83a.36.36,0,0,0,.37.36h1.82a.36.36,0,0,1,.37.37V99.3a.36.36,0,0,0,.36.37h1.83a.35.35,0,0,1,.36.36v1.83a.35.35,0,0,1-.36.36h-6.94a.36.36,0,0,0-.36.37v1.82a.36.36,0,0,1-.37.37h-1.82a.36.36,0,0,0-.37.36V107a.36.36,0,0,0,.37.36h1.82a.36.36,0,0,0,.37-.36v-1.83a.35.35,0,0,1,.36-.36H130a.35.35,0,0,1,.36.36V107a.36.36,0,0,0,.37.36h6.93a.36.36,0,0,1,.37.37v1.82a.36.36,0,0,1-.37.37h-1.82a.36.36,0,0,0-.37.36v9.5a.35.35,0,0,1-.36.36h-6.94a.36.36,0,0,0-.36.37v1.82a.36.36,0,0,1-.37.37h-1.82a.36.36,0,0,1-.37-.37v-1.82a.36.36,0,0,0-.36-.37H123a.35.35,0,0,1-.36-.36v-1.83a.35.35,0,0,1,.36-.36h4.38a.36.36,0,0,0,.37-.37v-1.82a.36.36,0,0,1,.36-.37h4.38a.36.36,0,0,0,.37-.37v-1.82a.36.36,0,0,0-.37-.37h-6.93a.36.36,0,0,0-.37.37v1.82a.36.36,0,0,1-.36.37H123a.36.36,0,0,1-.36-.37v-4.38a.36.36,0,0,0-.37-.36h-1.82a.36.36,0,0,1-.37-.37v-4.38a.36.36,0,0,1,.37-.36h1.82a.36.36,0,0,0,.37-.37v-1.82a.36.36,0,0,0-.37-.37h-1.82a.36.36,0,0,1-.37-.36V100a.36.36,0,0,1,.37-.36h1.82a.36.36,0,0,0,.37-.37V92.37a.36.36,0,0,0-.37-.37h-4.38a.36.36,0,0,1-.36-.37V87.25m8,9.86a.36.36,0,0,0-.37.37V99.3a.36.36,0,0,0,.37.37h1.82a.36.36,0,0,0,.37-.37V97.48a.36.36,0,0,0-.37-.37Z"/><path id="p202" class="cls-1" d="M117.56,117.92a.35.35,0,0,1,.36-.36h1.83a.35.35,0,0,1,.36.36v1.83a.35.35,0,0,1-.36.36h-1.83a.35.35,0,0,1-.36-.36Z"/><path id="p203" class="cls-1" d="M122.67.37A.36.36,0,0,1,123,0h4.38a.36.36,0,0,1,.37.37V2.19a.36.36,0,0,1-.37.37h-1.82a.36.36,0,0,0-.37.36V4.75a.36.36,0,0,0,.37.36H130a.35.35,0,0,0,.36-.36V.37A.36.36,0,0,1,130.7,0h4.38a.36.36,0,0,1,.36.37V9.86a.35.35,0,0,1-.36.36h-1.83a.35.35,0,0,1-.36-.36V8a.36.36,0,0,0-.37-.36H130.7a.36.36,0,0,0-.37.36V9.86a.36.36,0,0,0,.37.36h1.82a.36.36,0,0,1,.37.37v1.82a.36.36,0,0,1-.37.37H130.7a.36.36,0,0,0-.37.36v4.38a.36.36,0,0,1-.36.37h-1.83a.36.36,0,0,1-.36-.37V10.59a.36.36,0,0,0-.37-.37H123a.35.35,0,0,1-.36-.36V8a.36.36,0,0,0-.37-.36h-1.82a.36.36,0,0,1-.37-.37V5.48a.36.36,0,0,1,.37-.37h1.82a.36.36,0,0,0,.37-.36Z"/><path id="p204" class="cls-1" d="M120.11,10.59a.36.36,0,0,1,.37-.37h1.82a.36.36,0,0,1,.37.37v1.82a.36.36,0,0,1-.37.37h-1.82a.36.36,0,0,1-.37-.37Z"/><path id="p205" class="cls-1" d="M120.11,20.81a.36.36,0,0,1,.37-.37h1.82a.36.36,0,0,1,.37.37v1.82a.36.36,0,0,1-.37.37h-1.82a.36.36,0,0,1-.37-.37Z"/><path id="p206" class="cls-1" d="M132.89,20.81a.36.36,0,0,1,.36-.37h4.38a.36.36,0,0,1,.37.37v1.82a.36.36,0,0,0,.37.37h1.82a.36.36,0,0,0,.37-.37V20.81a.36.36,0,0,1,.36-.37h1.83a.36.36,0,0,1,.36.37v4.38a.36.36,0,0,0,.37.37h4.38a.35.35,0,0,1,.36.36v1.83a.35.35,0,0,1-.36.36h-6.94a.36.36,0,0,0-.36.37v6.93a.36.36,0,0,0,.36.37h1.83a.35.35,0,0,1,.36.36V38a.36.36,0,0,0,.37.36h6.93a.36.36,0,0,1,.37.37v4.38a.35.35,0,0,0,.36.36h4.38a.36.36,0,0,1,.37.37v1.82a.36.36,0,0,1-.37.37h-4.38a.36.36,0,0,0-.36.37v1.82a.36.36,0,0,1-.37.37h-1.82a.36.36,0,0,1-.37-.37V41.25a.35.35,0,0,0-.36-.36H146a.35.35,0,0,0-.36.36v1.83a.36.36,0,0,1-.37.36h-1.82a.36.36,0,0,1-.37-.36V41.25a.35.35,0,0,0-.36-.36h-1.83a.36.36,0,0,1-.36-.37V38.7a.36.36,0,0,0-.37-.37h-1.82a.36.36,0,0,0-.37.37v1.82a.36.36,0,0,0,.37.37h1.82a.36.36,0,0,1,.37.36v1.83a.36.36,0,0,1-.37.36h-1.82a.36.36,0,0,0-.37.37v1.82a.36.36,0,0,1-.37.37h-1.82a.36.36,0,0,1-.37-.37V43.81a.36.36,0,0,0-.36-.37h-1.83a.35.35,0,0,1-.36-.36V41.25a.35.35,0,0,1,.36-.36h1.83a.36.36,0,0,0,.36-.37V38.7a.36.36,0,0,0-.36-.37h-1.83a.36.36,0,0,0-.36.37v1.82a.36.36,0,0,1-.37.37h-4.38a.36.36,0,0,1-.36-.37V38.7a.36.36,0,0,0-.37-.37h-1.82a.36.36,0,0,0-.37.37v1.82a.36.36,0,0,0,.37.37h1.82a.36.36,0,0,1,.37.36v1.83a.35.35,0,0,0,.36.36H130a.36.36,0,0,1,.36.37v1.82A.36.36,0,0,1,130,46H123a.36.36,0,0,1-.36-.37V43.81a.36.36,0,0,0-.37-.37h-1.82a.36.36,0,0,1-.37-.36V41.25a.36.36,0,0,1,.37-.36h1.82a.36.36,0,0,0,.37-.37V36.14a.35.35,0,0,1,.36-.36h1.83a.36.36,0,0,0,.36-.37V31a.36.36,0,0,1,.37-.36h1.82a.36.36,0,0,1,.37.36v1.83a.35.35,0,0,0,.36.36H130a.36.36,0,0,1,.36.37v1.82a.36.36,0,0,0,.37.37h4.38a.36.36,0,0,0,.36-.37V33.59a.36.36,0,0,1,.37-.37h1.82a.36.36,0,0,0,.37-.36V31a.36.36,0,0,0-.37-.36h-1.82a.36.36,0,0,1-.37-.37V28.48a.36.36,0,0,1,.37-.37h1.82a.36.36,0,0,0,.37-.36V25.92a.36.36,0,0,0-.37-.36h-4.38a.35.35,0,0,0-.36.36v1.83a.36.36,0,0,1-.37.36H130.7a.36.36,0,0,1-.37-.36V23.37a.36.36,0,0,1,.37-.37h1.82a.36.36,0,0,0,.37-.37Z"/><path id="p207" class="cls-1" d="M135.44,48.92a.36.36,0,0,1,.37-.36h4.38a.36.36,0,0,1,.37.36v1.83a.36.36,0,0,1-.37.36h-1.82a.36.36,0,0,0-.37.37V53.3a.36.36,0,0,0,.37.37h4.38a.35.35,0,0,1,.36.36v4.38a.36.36,0,0,1-.36.37h-1.83a.35.35,0,0,0-.36.36V61a.35.35,0,0,0,.36.36h1.83a.36.36,0,0,1,.36.37v1.82a.36.36,0,0,0,.37.37h1.82a.36.36,0,0,1,.37.36v1.83a.36.36,0,0,1-.37.36h-1.82a.36.36,0,0,0-.37.37v1.82a.36.36,0,0,1-.36.37h-1.83a.36.36,0,0,0-.36.37v1.82a.36.36,0,0,0,.36.37h6.94a.35.35,0,0,1,.36.36v1.83a.35.35,0,0,1-.36.36H146a.36.36,0,0,0-.36.37v6.93a.36.36,0,0,0,.36.37h1.83a.35.35,0,0,1,.36.36v4.38a.36.36,0,0,0,.37.37h1.82a.36.36,0,0,1,.37.36v1.83a.36.36,0,0,1-.37.36H146a.36.36,0,0,0-.36.37v1.82a.36.36,0,0,1-.37.37h-1.82a.36.36,0,0,1-.37-.37V89.81a.36.36,0,0,0-.36-.37h-1.83a.35.35,0,0,1-.36-.36V84.7a.36.36,0,0,0-.37-.37h-1.82a.36.36,0,0,0-.37.37v4.38a.36.36,0,0,0,.37.36h1.82a.36.36,0,0,1,.37.37v4.38a.36.36,0,0,0,.36.37h6.94a.35.35,0,0,1,.36.36v1.83a.35.35,0,0,1-.36.36h-4.38a.36.36,0,0,0-.37.37V99.3a.36.36,0,0,1-.36.37h-1.83a.36.36,0,0,1-.36-.37V97.48a.36.36,0,0,0-.37-.37h-1.82a.36.36,0,0,0-.37.37V99.3a.36.36,0,0,1-.37.37h-1.82a.36.36,0,0,1-.37-.37v-12a.35.35,0,0,0-.36-.36h-1.83a.36.36,0,0,1-.36-.37V84.7a.36.36,0,0,0-.37-.37H130.7a.36.36,0,0,1-.37-.36V82.14a.36.36,0,0,1,.37-.36h1.82a.36.36,0,0,0,.37-.37V74.48a.36.36,0,0,0-.37-.37h-4.38a.35.35,0,0,1-.36-.36V71.92a.36.36,0,0,0-.37-.36h-1.82a.36.36,0,0,0-.37.36v1.83a.36.36,0,0,0,.37.36h1.82a.36.36,0,0,1,.37.37V76.3a.36.36,0,0,1-.37.37h-1.82a.36.36,0,0,0-.37.36v1.83a.35.35,0,0,1-.36.36H123a.35.35,0,0,1-.36-.36v-12a.36.36,0,0,0-.37-.37h-1.82a.36.36,0,0,1-.37-.36V61.7a.36.36,0,0,1,.37-.37h1.82a.36.36,0,0,0,.37-.36V59.14a.35.35,0,0,1,.36-.36h4.38a.36.36,0,0,1,.37.36V61a.36.36,0,0,1-.37.36h-1.82a.36.36,0,0,0-.37.37v1.82a.36.36,0,0,0,.37.37h1.82a.36.36,0,0,1,.37.36v1.83a.36.36,0,0,1-.37.36h-1.82a.36.36,0,0,0-.37.37v1.82a.36.36,0,0,0,.37.37h1.82a.36.36,0,0,0,.37-.37V66.81a.36.36,0,0,1,.36-.37H130a.36.36,0,0,1,.36.37v1.82a.36.36,0,0,0,.37.37h1.82a.36.36,0,0,1,.37.37v1.82a.36.36,0,0,0,.36.37h4.38a.36.36,0,0,0,.37-.37V56.59a.36.36,0,0,0-.37-.37h-1.82a.36.36,0,0,1-.37-.36V48.92m.37,25.19a.36.36,0,0,0-.37.37v6.93a.36.36,0,0,0,.37.37h6.94a.36.36,0,0,0,.36-.37V74.48a.36.36,0,0,0-.36-.37h-6.94m7.67,10.22a.36.36,0,0,0-.37.37v1.82a.36.36,0,0,0,.37.37h1.82a.36.36,0,0,0,.37-.37V84.7a.36.36,0,0,0-.37-.37Z"/><path id="p208" class="cls-1" d="M120.11,123a.36.36,0,0,1,.37-.36h4.38a.35.35,0,0,1,.36.36v4.38a.36.36,0,0,1-.36.37H123a.36.36,0,0,1-.36-.37v-1.82a.36.36,0,0,0-.37-.37h-1.82a.36.36,0,0,1-.37-.36Z"/><path id="p209" class="cls-1" d="M120.11,138.37a.36.36,0,0,1,.37-.37h1.82a.36.36,0,0,1,.37.37v1.82a.36.36,0,0,1-.37.37h-1.82a.36.36,0,0,1-.37-.37Z"/><path id="p210" class="cls-1" d="M122.67,140.92a.35.35,0,0,1,.36-.36h4.38a.36.36,0,0,1,.37.36v1.83a.36.36,0,0,1-.37.36h-1.82a.36.36,0,0,0-.37.37v4.38a.35.35,0,0,1-.36.36h-4.38a.36.36,0,0,1-.37-.36V146a.36.36,0,0,1,.37-.36h1.82a.36.36,0,0,0,.37-.37Z"/><path id="p211" class="cls-1" d="M122.67,13.14a.35.35,0,0,1,.36-.36h1.83a.35.35,0,0,1,.36.36v4.38a.36.36,0,0,1-.36.37H123a.36.36,0,0,1-.36-.37Z"/><path id="p212" class="cls-1" d="M122.67,23.37A.36.36,0,0,1,123,23h1.83a.36.36,0,0,1,.36.37v1.82a.36.36,0,0,1-.36.37H123a.36.36,0,0,1-.36-.37Z"/><path id="p213" class="cls-1" d="M122.67,82.14a.35.35,0,0,1,.36-.36h4.38a.36.36,0,0,1,.37.36V84a.35.35,0,0,0,.36.36H130a.36.36,0,0,1,.36.37v1.82a.36.36,0,0,1-.36.37h-1.83a.35.35,0,0,0-.36.36v1.83a.36.36,0,0,1-.37.36h-1.82a.36.36,0,0,1-.37-.36V84.7a.36.36,0,0,0-.36-.37H123a.35.35,0,0,1-.36-.36Z"/><path id="p214" class="cls-1" d="M125.22,151.14a.36.36,0,0,1,.37-.36h1.82a.36.36,0,0,1,.37.36V153a.35.35,0,0,0,.36.36h4.38a.36.36,0,0,0,.37-.36v-1.83a.35.35,0,0,1,.36-.36h1.83a.35.35,0,0,1,.36.36v4.38a.36.36,0,0,1-.36.37H123a.36.36,0,0,1-.36-.37V153.7a.36.36,0,0,1,.36-.37h1.83a.35.35,0,0,0,.36-.36Z"/><path id="p215" class="cls-1" d="M125.22,18.25a.36.36,0,0,1,.37-.36h1.82a.36.36,0,0,1,.37.36v1.83a.36.36,0,0,1-.37.36h-1.82a.36.36,0,0,1-.37-.36Z"/><path id="p216" class="cls-1" d="M127.78,20.81a.36.36,0,0,1,.36-.37H130a.36.36,0,0,1,.36.37v1.82A.36.36,0,0,1,130,23h-1.83a.36.36,0,0,1-.36-.37Z"/><path id="p217" class="cls-1" d="M127.78,28.48a.36.36,0,0,1,.36-.37H130a.36.36,0,0,1,.36.37V30.3a.36.36,0,0,1-.36.37h-1.83a.36.36,0,0,1-.36-.37Z"/><path id="p218" class="cls-1" d="M127.78,54a.35.35,0,0,1,.36-.36H130a.35.35,0,0,1,.36.36v1.83a.35.35,0,0,1-.36.36h-1.83a.35.35,0,0,1-.36-.36Z"/><path id="p219" class="cls-1" d="M132.89,56.59a.36.36,0,0,1,.36-.37h1.83a.36.36,0,0,1,.36.37v9.49a.35.35,0,0,1-.36.36h-1.83a.35.35,0,0,1-.36-.36V64.25a.36.36,0,0,0-.37-.36h-4.38a.36.36,0,0,1-.36-.37V61.7a.36.36,0,0,1,.36-.37H130a.35.35,0,0,0,.36-.36V59.14a.36.36,0,0,1,.37-.36h1.82a.36.36,0,0,0,.37-.37Z"/><path id="p220" class="cls-1" d="M127.78,79.59a.36.36,0,0,1,.36-.37H130a.36.36,0,0,1,.36.37v1.82a.36.36,0,0,1-.36.37h-1.83a.36.36,0,0,1-.36-.37Z"/><path id="p221" class="cls-1" d="M127.78,148.59a.36.36,0,0,1,.36-.37H130a.36.36,0,0,1,.36.37v1.82a.36.36,0,0,1-.36.37h-1.83a.36.36,0,0,1-.36-.37Z"/><path id="p222" class="cls-1" d="M130.33,18.25a.36.36,0,0,1,.37-.36h1.82a.36.36,0,0,1,.37.36v1.83a.36.36,0,0,1-.37.36H130.7a.36.36,0,0,1-.37-.36Z"/><path id="p223" class="cls-1" d="M130.33,31a.36.36,0,0,1,.37-.36h4.38a.35.35,0,0,1,.36.36v1.83a.35.35,0,0,1-.36.36H130.7a.36.36,0,0,1-.37-.36Z"/><path id="p224" class="cls-1" d="M130.33,48.92a.36.36,0,0,1,.37-.36h1.82a.36.36,0,0,1,.37.36V53.3a.36.36,0,0,1-.37.37H130.7a.36.36,0,0,1-.37-.37Z"/><path id="p225" class="cls-1" d="M130.33,87.25a.36.36,0,0,1,.37-.36h1.82a.36.36,0,0,1,.37.36v6.94a.36.36,0,0,1-.37.37H130.7a.36.36,0,0,1-.37-.37Z"/><path id="p226" class="cls-1" d="M132.89,15.7a.36.36,0,0,1,.36-.37h1.83a.36.36,0,0,1,.36.37v1.82a.36.36,0,0,1-.36.37h-1.83a.36.36,0,0,1-.36-.37Z"/><path id="p227" class="cls-1" d="M140.56,107.7a.36.36,0,0,1,.36-.37h1.83a.36.36,0,0,1,.36.37v4.38a.36.36,0,0,0,.37.36h1.82a.36.36,0,0,1,.37.37v1.82a.36.36,0,0,1-.37.37h-1.82a.36.36,0,0,0-.37.37v1.82a.36.36,0,0,1-.36.37h-1.83a.35.35,0,0,0-.36.36v1.83a.35.35,0,0,0,.36.36h1.83a.35.35,0,0,0,.36-.36v-1.83a.36.36,0,0,1,.37-.36h1.82a.36.36,0,0,1,.37.36v4.38a.36.36,0,0,0,.36.37h1.83a.35.35,0,0,1,.36.36v4.38a.36.36,0,0,1-.36.37H146a.35.35,0,0,0-.36.36V130a.36.36,0,0,1-.37.36h-1.82a.36.36,0,0,1-.37-.36v-1.83a.35.35,0,0,0-.36-.36h-1.83a.36.36,0,0,1-.36-.37v-1.82a.36.36,0,0,0-.37-.37h-1.82a.36.36,0,0,1-.37-.36V123a.36.36,0,0,0-.37-.36h-1.82a.36.36,0,0,1-.37-.37v-1.82a.36.36,0,0,1,.37-.37h1.82a.36.36,0,0,0,.37-.36v-6.94a.36.36,0,0,1,.37-.37h1.82a.36.36,0,0,0,.37-.36Z"/><path id="p228" class="cls-1" d="M138,.37a.36.36,0,0,1,.37-.37h17.15a.36.36,0,0,1,.37.37V17.52a.36.36,0,0,1-.37.37H138.37a.36.36,0,0,1-.37-.37V.37m2.92,2.19a.35.35,0,0,0-.36.36V15a.35.35,0,0,0,.36.36H153a.35.35,0,0,0,.36-.36v-12a.35.35,0,0,0-.36-.36Z"/><path id="p229" class="cls-1" d="M138,77a.36.36,0,0,1,.37-.36h1.82a.36.36,0,0,1,.37.36v1.83a.36.36,0,0,1-.37.36h-1.82a.36.36,0,0,1-.37-.36Z"/><path id="p230" class="cls-1" d="M138,100a.36.36,0,0,1,.37-.36h1.82a.36.36,0,0,1,.37.36v1.83a.35.35,0,0,0,.36.36h1.83a.36.36,0,0,1,.36.37v1.82a.36.36,0,0,1-.36.37h-4.38a.36.36,0,0,1-.37-.37Z"/><path id="p231" class="cls-1" d="M138,138.37a.36.36,0,0,1,.37-.37h1.82a.36.36,0,0,1,.37.37v1.82a.36.36,0,0,1-.37.37h-1.82a.36.36,0,0,1-.37-.37Z"/><path id="p232" class="cls-1" d="M140.56,43.81a.36.36,0,0,1,.36-.37h1.83a.36.36,0,0,1,.36.37v1.82a.36.36,0,0,1-.36.37h-1.83a.36.36,0,0,1-.36-.37Z"/><path id="p233" class="cls-1" d="M143.11,5.48a.36.36,0,0,1,.37-.37h6.93a.36.36,0,0,1,.37.37v6.93a.36.36,0,0,1-.37.37h-6.93a.36.36,0,0,1-.37-.37Z"/><path id="p234" class="cls-1" d="M143.11,33.59a.36.36,0,0,1,.37-.37h1.82a.36.36,0,0,1,.37.37v1.82a.36.36,0,0,1-.37.37h-1.82a.36.36,0,0,1-.37-.37Z"/><path id="p235" class="cls-1" d="M143.11,46.37a.36.36,0,0,1,.37-.37h1.82a.36.36,0,0,1,.37.37v1.82a.36.36,0,0,1-.37.37h-1.82a.36.36,0,0,1-.37-.37Z"/><path id="p236" class="cls-1" d="M143.11,105.14a.36.36,0,0,1,.37-.36h4.38a.35.35,0,0,1,.36.36V107a.35.35,0,0,1-.36.36h-4.38a.36.36,0,0,1-.37-.36Z"/><path id="p237" class="cls-1" d="M145.67,20.81a.36.36,0,0,1,.36-.37h1.83a.36.36,0,0,1,.36.37v1.82a.36.36,0,0,1-.36.37H146a.36.36,0,0,1-.36-.37Z"/><path id="p238" class="cls-1" d="M145.67,51.48a.36.36,0,0,1,.36-.37h1.83a.36.36,0,0,1,.36.37v4.38a.35.35,0,0,1-.36.36H146a.35.35,0,0,1-.36-.36Z"/><path id="p239" class="cls-1" d="M145.67,61.7a.36.36,0,0,1,.36-.37h1.83a.36.36,0,0,1,.36.37v1.82a.36.36,0,0,1-.36.37H146a.36.36,0,0,1-.36-.37Z"/><path id="p240" class="cls-1" d="M145.67,66.81a.36.36,0,0,1,.36-.37h1.83a.36.36,0,0,1,.36.37v1.82a.36.36,0,0,1-.36.37H146a.36.36,0,0,1-.36-.37Z"/><path id="p241" class="cls-1" d="M148.22,107.7a.36.36,0,0,1,.37-.37h6.93a.36.36,0,0,1,.37.37v9.49a.36.36,0,0,1-.37.37H153.7a.36.36,0,0,1-.37-.37v-4.38a.36.36,0,0,0-.36-.37h-1.83a.36.36,0,0,0-.36.37v4.38a.36.36,0,0,1-.37.37H146a.36.36,0,0,1-.36-.37v-1.82A.36.36,0,0,1,146,115h1.83a.36.36,0,0,0,.36-.37v-1.82a.36.36,0,0,0-.36-.37H146a.35.35,0,0,1-.36-.36v-1.83a.35.35,0,0,1,.36-.36h1.83a.36.36,0,0,0,.36-.37Z"/><path id="p242" class="cls-1" d="M148.22,33.59a.36.36,0,0,1,.37-.37h1.82a.36.36,0,0,1,.37.37v1.82a.36.36,0,0,1-.37.37h-1.82a.36.36,0,0,1-.37-.37Z"/><path id="p243" class="cls-1" d="M153.33,54a.36.36,0,0,1,.37-.36h1.82a.36.36,0,0,1,.37.36v9.49a.36.36,0,0,1-.37.37H153.7a.36.36,0,0,0-.37.36v6.94a.36.36,0,0,0,.37.37h1.82a.36.36,0,0,1,.37.36V76.3a.36.36,0,0,1-.37.37H153.7a.36.36,0,0,0-.37.36v1.83a.35.35,0,0,1-.36.36h-1.83a.35.35,0,0,1-.36-.36V77a.36.36,0,0,0-.37-.36h-1.82a.36.36,0,0,1-.37-.37V74.48a.36.36,0,0,1,.37-.37h1.82a.36.36,0,0,0,.37-.36V71.92a.36.36,0,0,0-.37-.36h-1.82a.36.36,0,0,1-.37-.37V69.37a.36.36,0,0,1,.37-.37h1.82a.36.36,0,0,0,.37-.37v-12a.36.36,0,0,1,.36-.37H153a.35.35,0,0,0,.36-.36Z"/><path id="p244" class="cls-1" d="M148.22,79.59a.36.36,0,0,1,.37-.37h1.82a.36.36,0,0,1,.37.37v1.82a.36.36,0,0,1-.37.37h-1.82a.36.36,0,0,1-.37-.37Z"/><path id="p245" class="cls-1" d="M148.22,92.37a.36.36,0,0,1,.37-.37H153a.36.36,0,0,1,.36.37v1.82a.36.36,0,0,1-.36.37h-4.38a.36.36,0,0,1-.37-.37Z"/><path id="p246" class="cls-1" d="M148.22,97.48a.36.36,0,0,1,.37-.37h1.82a.36.36,0,0,1,.37.37V99.3a.36.36,0,0,1-.37.37h-1.82a.36.36,0,0,1-.37-.37Z"/><path id="p247" class="cls-1" d="M148.22,102.59a.36.36,0,0,1,.37-.37h1.82a.36.36,0,0,1,.37.37v1.82a.36.36,0,0,1-.37.37h-1.82a.36.36,0,0,1-.37-.37Z"/><path id="p248" class="cls-1" d="M148.22,120.48a.36.36,0,0,1,.37-.37h1.82a.36.36,0,0,1,.37.37v1.82a.36.36,0,0,1-.37.37h-1.82a.36.36,0,0,1-.37-.37Z"/><path id="p249" class="cls-1" d="M153.33,120.48a.36.36,0,0,1,.37-.37h1.82a.36.36,0,0,1,.37.37v6.93a.36.36,0,0,1-.37.37H153.7a.36.36,0,0,0-.37.36V130a.36.36,0,0,0,.37.36h1.82a.36.36,0,0,1,.37.37v1.82a.36.36,0,0,1-.37.37H153.7a.36.36,0,0,0-.37.36v1.83a.35.35,0,0,1-.36.36h-1.83a.35.35,0,0,1-.36-.36V130.7a.36.36,0,0,0-.37-.37h-1.82a.36.36,0,0,1-.37-.36v-1.83a.36.36,0,0,1,.37-.36h1.82a.36.36,0,0,0,.37-.37v-1.82a.36.36,0,0,1,.36-.37H153a.35.35,0,0,0,.36-.36Z"/><path id="p250" class="cls-1" d="M150.78,20.81a.36.36,0,0,1,.36-.37H153a.36.36,0,0,1,.36.37v4.38a.36.36,0,0,0,.37.37h1.82a.36.36,0,0,1,.37.36v6.94a.36.36,0,0,1-.37.36h-4.38a.35.35,0,0,1-.36-.36Z"/><path id="p251" class="cls-1" d="M150.78,36.14a.35.35,0,0,1,.36-.36H153a.35.35,0,0,1,.36.36V38a.35.35,0,0,1-.36.36h-1.83a.35.35,0,0,1-.36-.36Z"/><path id="p252" class="cls-1" d="M150.78,48.92a.35.35,0,0,1,.36-.36h4.38a.36.36,0,0,1,.37.36v1.83a.36.36,0,0,1-.37.36h-4.38a.35.35,0,0,1-.36-.36Z"/><path id="p253" class="cls-1" d="M150.78,84.7a.36.36,0,0,1,.36-.37H153a.36.36,0,0,1,.36.37v1.82a.36.36,0,0,1-.36.37h-1.83a.36.36,0,0,1-.36-.37Z"/><path id="p254" class="cls-1" d="M150.78,117.92a.35.35,0,0,1,.36-.36H153a.35.35,0,0,1,.36.36v1.83a.35.35,0,0,1-.36.36h-1.83a.35.35,0,0,1-.36-.36Z"/><path id="p255" class="cls-1" d="M153.33,38.7a.36.36,0,0,1,.37-.37h1.82a.36.36,0,0,1,.37.37v1.82a.36.36,0,0,1-.37.37H153.7a.36.36,0,0,1-.37-.37Z"/><path id="p256" class="cls-1" d="M153.33,79.59a.36.36,0,0,1,.37-.37h1.82a.36.36,0,0,1,.37.37v1.82a.36.36,0,0,1-.37.37H153.7a.36.36,0,0,1-.37-.37Z"/><path id="p257" class="cls-1" d="M153.33,89.81a.36.36,0,0,1,.37-.37h1.82a.36.36,0,0,1,.37.37v1.82a.36.36,0,0,1-.37.37H153.7a.36.36,0,0,1-.37-.37Z"/><path id="p258" class="cls-1" d="M153.33,100a.36.36,0,0,1,.37-.36h1.82a.36.36,0,0,1,.37.36v4.38a.36.36,0,0,1-.37.37H153.7a.36.36,0,0,1-.37-.37Z"/><path id="p259" class="cls-1" d="M153.33,135.81a.36.36,0,0,1,.37-.37h1.82a.36.36,0,0,1,.37.37v1.82a.36.36,0,0,1-.37.37H153.7a.36.36,0,0,1-.37-.37Z"/><path id="p260" class="cls-1" d="M153.33,146a.36.36,0,0,1,.37-.36h1.82a.36.36,0,0,1,.37.36v4.38a.36.36,0,0,1-.37.37H153.7a.36.36,0,0,1-.37-.37Z"/><path id="p261" class="cls-1" d="M153.33,153.7a.36.36,0,0,1,.37-.37h1.82a.36.36,0,0,1,.37.37v1.82a.36.36,0,0,1-.37.37H153.7a.36.36,0,0,1-.37-.37Z"/></g></g></svg>