<svg xmlns="http://www.w3.org/2000/svg" viewBox="0 0 50 49.99"><defs><style>.cls-1{fill:#fff;}.cls-2{fill:#3a7bb5;}</style></defs><title>viber_icon</title><g id="Слой_2" data-name="Слой 2"><g id="Слой_1-2" data-name="Слой 1"><path class="cls-1" d="M25,0h0A25,25,0,0,0,0,25H0A25,25,0,0,0,25,50h0A25,25,0,0,0,50,25h0A25,25,0,0,0,25,0Z"/><path id="viber" class="cls-2" d="M34,15.1a8.11,8.11,0,0,0-3.31-1.64,23.86,23.86,0,0,0-9.29-.58,12.7,12.7,0,0,0-4.53,1.43,6.54,6.54,0,0,0-3.3,4.13,19,19,0,0,0-.61,4,19.78,19.78,0,0,0,.48,6,6.73,6.73,0,0,0,4.12,4.84c.24.1.47.23.71.33a.43.43,0,0,1,.29.48c0,1.57,0,3.15,0,4.79.58-.56,1-1,1.28-1.31.87-1,1.7-1.81,2.61-2.75.47-.48.27-.46,1-.45s2.17,0,3,0a22.48,22.48,0,0,0,4.74-.8A6.2,6.2,0,0,0,35.5,30a11.76,11.76,0,0,0,.55-1.61,21.51,21.51,0,0,0,0-9.48A6.42,6.42,0,0,0,34,15.1ZM24.23,17c0-.3.19-.42.48-.4a6.83,6.83,0,0,1,5.68,2.74,7.3,7.3,0,0,1,1.32,4c0,.21,0,.42,0,.62s-.11.41-.37.41a.38.38,0,0,1-.41-.4,9.6,9.6,0,0,0-.66-3,5.6,5.6,0,0,0-4.1-3.34,9.35,9.35,0,0,0-1.51-.27C24.42,17.37,24.21,17.32,24.23,17Zm2.46,2.59a8.93,8.93,0,0,0-1.52-.39c-.25,0-.43-.17-.39-.46a.4.4,0,0,1,.49-.36,4.79,4.79,0,0,1,3.95,2.25,4.51,4.51,0,0,1,.64,2.4c0,.52-.11.65-.4.64s-.37-.36-.4-.63a8,8,0,0,0-.25-1.18A3.21,3.21,0,0,0,26.69,19.6Zm1.44,2.87c0,.15,0,.25,0,.34a.38.38,0,0,1-.75,0,2.66,2.66,0,0,1-.07-.39,1.59,1.59,0,0,0-1.21-1.32l-.25-.05c-.22-.06-.48-.07-.49-.38s.19-.42.55-.44a2,2,0,0,1,.83.21A2.33,2.33,0,0,1,28.13,22.47Zm3.58,7.23a3.58,3.58,0,0,1-2.41,2.09,1.75,1.75,0,0,1-1.19-.14,19.67,19.67,0,0,1-11-11,2.93,2.93,0,0,1-.23-1.13,2.78,2.78,0,0,1,2.48-2.66,1.23,1.23,0,0,1,.93.34,9.64,9.64,0,0,1,2.17,3,1.09,1.09,0,0,1-.35,1.48,2.48,2.48,0,0,1-.26.19,1.33,1.33,0,0,0-.52,1.83A6.63,6.63,0,0,0,24,26.72a5.46,5.46,0,0,0,1.43.71,1,1,0,0,0,1.16-.38l.1-.13A1.53,1.53,0,0,1,29,26.43a19.91,19.91,0,0,1,2.34,1.73A1.22,1.22,0,0,1,31.71,29.7Z"/></g></g></svg>