<svg xmlns="http://www.w3.org/2000/svg" viewBox="0 0 50 50"><defs><style>.cls-1{fill:#fff;}.cls-2{fill:#3a7bb5;fill-rule:evenodd;}</style></defs><title>vk_icon</title><g id="Слой_2" data-name="Слой 2"><g id="Слой_1-2" data-name="Слой 1"><path class="cls-1" d="M25,50h0A25,25,0,0,0,50,25h0A25,25,0,0,0,25,0h0A25,25,0,0,0,0,25H0A25,25,0,0,0,25,50Z"/><path id="vk_alt" class="cls-2" d="M24.07,34.84H26a1.61,1.61,0,0,0,.87-.37,1.4,1.4,0,0,0,.26-.84s0-2.54,1.14-2.91,2.66,2.45,4.24,3.54a3,3,0,0,0,2.11.64l4.24-.06S41,34.71,40,33a14.1,14.1,0,0,0-3.15-3.65c-2.65-2.46-2.3-2.06.9-6.33,2-2.59,2.73-4.18,2.48-4.86s-1.66-.47-1.66-.47l-4.77,0a1,1,0,0,0-.61.11,1.26,1.26,0,0,0-.42.51A27.81,27.81,0,0,1,31,22c-2.12,3.6-3,3.79-3.31,3.57-.81-.53-.61-2.1-.61-3.22,0-3.49.53-4.95-1-5.32a8.13,8.13,0,0,0-2.23-.23,10.35,10.35,0,0,0-3.95.41c-.55.26-1,.86-.71.89a2.11,2.11,0,0,1,1.41.71A4.54,4.54,0,0,1,21,21s.28,4.12-.66,4.63C19.72,26,18.84,25.25,17,22a30.92,30.92,0,0,1-1.71-3.52,1.45,1.45,0,0,0-.39-.54,2,2,0,0,0-.73-.29l-4.53,0s-.68,0-.93.31,0,.81,0,.81,3.55,8.3,7.56,12.48a10.91,10.91,0,0,0,7.87,3.58Z"/></g></g></svg>