<svg xmlns="http://www.w3.org/2000/svg" viewBox="0 0 171.44 126.28"><defs><style>.cls-1{font-size:26px;font-family:Circe-ExtraBold, Circe;font-weight:800;}.cls-1,.cls-5{fill:gray;}.cls-2{letter-spacing:-0.13em;}.cls-3{letter-spacing:-0.06em;}.cls-4{fill:#6cc7dd;}</style></defs><title>Ресурс 4</title><g id="Слой_2" data-name="Слой 2"><g id="Слой_1-2" data-name="Слой 1"><text class="cls-1" transform="translate(0 114.47) scale(1.02 1)"><tspan class="cls-2">Г</tspan><tspan x="9.83" y="0">ор</tspan><tspan class="cls-3" x="38.97" y="0">С</tspan><tspan x="54.34" y="0">тройСити</tspan></text><polygon class="cls-4" points="55.55 17.26 86.33 16 86.33 0 55.55 5.04 55.55 17.26"/><polygon class="cls-4" points="55.55 35.59 86.33 39.99 86.33 24 55.55 23.37 55.55 35.59"/><polygon class="cls-4" points="55.55 53.92 86.33 63.99 86.33 47.99 55.55 41.7 55.55 53.92"/><polygon class="cls-4" points="55.55 72.25 86.33 87.99 86.33 71.99 55.55 60.03 55.55 72.25"/><polygon class="cls-4" points="130.83 34.01 111.6 36.62 111.6 23.61 130.83 22.99 130.83 34.01"/><polygon class="cls-4" points="130.83 50.12 111.6 56.01 111.6 43.19 130.83 39.19 130.83 50.12"/><polygon class="cls-4" points="130.37 66.16 111.6 75.93 111.6 62.83 130.37 55.55 130.37 66.16"/><polygon class="cls-5" points="105.92 16.8 86.33 16 86.33 0 105.92 3.21 105.92 16.8"/><polygon class="cls-5" points="105.92 37.19 86.33 40 86.33 24 105.92 23.6 105.92 37.19"/><polygon class="cls-5" points="105.92 57.59 86.33 64 86.33 47.99 105.92 43.99 105.92 57.59"/><polygon class="cls-5" points="105.92 77.98 86.33 88 86.33 71.99 105.92 64.38 105.92 77.98"/><polygon class="cls-5" points="153.23 43.46 135.69 49.21 135.69 38.76 153.23 35.11 153.23 43.46"/><polygon class="cls-5" points="153.23 55.8 135.69 64.89 135.69 54.44 153.23 47.61 153.23 55.8"/><polygon class="cls-5" points="30.69 32.27 50.63 35.12 50.63 23.3 30.69 22.89 30.69 32.27"/><polygon class="cls-5" points="30.69 46.32 50.63 52.85 50.63 41.03 30.69 36.95 30.69 46.32"/><polygon class="cls-5" points="30.69 60.38 50.63 70.58 50.63 58.76 30.69 51.01 30.69 60.38"/><polygon class="cls-4" points="17 42.66 26.25 45.68 26.25 36.56 17 34.66 17 42.66"/><polygon class="cls-4" points="17 54.66 26.25 59.4 26.25 50.26 17 46.66 17 54.66"/></g></g></svg>